<svg width="1333" height="900" viewBox="0 0 1333 900" fill="none" xmlns="http://www.w3.org/2000/svg">
<path fill-rule="evenodd" clip-rule="evenodd" d="M-1.42722 -103.921C-1.35505 -103.427 -1.35457 -103.427 -1.35312 -103.427L-1.34532 -103.428L-1.3122 -103.433C-1.28233 -103.437 -1.23687 -103.443 -1.17587 -103.451C-1.05392 -103.466 -0.869913 -103.489 -0.624292 -103.517C-0.13308 -103.572 0.60451 -103.647 1.58459 -103.724C3.54478 -103.879 6.47501 -104.043 10.3445 -104.079C18.0836 -104.153 29.58 -103.718 44.5877 -101.68C74.6024 -97.6046 118.666 -87.1175 174.807 -61.4627C287.089 -10.1528 447.697 101.835 640.851 344.572C834.078 587.401 994.805 699.503 1107.26 750.893C1163.49 776.588 1207.65 787.103 1237.76 791.192C1252.82 793.236 1264.36 793.674 1272.15 793.6C1276.04 793.563 1279 793.398 1280.98 793.242C1281.54 793.198 1282.02 793.154 1282.43 793.115C1282.74 793.084 1283 793.056 1283.22 793.032C1283.47 793.003 1283.66 792.98 1283.79 792.963L1283.93 792.944L1283.97 792.939L1283.98 792.938C1283.98 792.937 1283.98 792.937 1283.91 792.442C1283.87 792.162 1283.85 792.041 1283.84 791.988C1283.84 791.948 1283.84 791.948 1283.84 791.948L1283.83 791.949L1283.8 791.954C1283.77 791.958 1283.72 791.964 1283.66 791.972L1283.53 791.988C1283.42 792.001 1283.28 792.018 1283.11 792.038C1282.62 792.093 1281.88 792.168 1280.9 792.245C1278.94 792.399 1276.01 792.563 1272.14 792.6C1264.4 792.674 1252.9 792.239 1237.9 790.201C1207.88 786.125 1163.82 775.638 1107.68 749.984C995.395 698.674 834.787 586.686 641.633 343.949C448.406 101.12 287.679 -10.9824 175.222 -62.3722C118.994 -88.0671 74.8359 -98.582 44.7223 -102.671C29.6657 -104.715 18.1211 -105.153 10.3351 -105.079C6.44206 -105.042 3.48879 -104.877 1.5061 -104.721C0.514738 -104.643 -0.233954 -104.567 -0.73615 -104.511C-0.987263 -104.482 -1.17672 -104.459 -1.3041 -104.442C-1.36778 -104.434 -1.41593 -104.428 -1.4485 -104.423L-1.48567 -104.418L-1.49546 -104.417C-1.49791 -104.416 -1.49939 -104.416 -1.42722 -103.921ZM-8.11465 -94.3559C-8.1161 -94.3557 -8.11658 -94.3557 -8.18875 -94.8504C-8.26092 -95.3452 -8.25944 -95.3454 -8.25699 -95.3458L-8.2472 -95.3472L-8.21002 -95.3523L-8.15241 -95.3601L-8.06562 -95.3715C-7.93825 -95.388 -7.74879 -95.4114 -7.49768 -95.4397C-6.99548 -95.4962 -6.24679 -95.5721 -5.25543 -95.6502C-3.27274 -95.8063 -0.319464 -95.9713 3.57353 -96.0084C11.3596 -96.0824 22.9042 -95.6445 37.9607 -93.6001C68.0744 -89.5111 112.232 -78.9962 168.461 -53.3013C280.918 -1.91145 441.644 110.191 634.872 353.02C828.025 595.757 988.634 707.745 1100.92 759.055C1157.06 784.709 1201.12 795.196 1231.13 799.272C1246.14 801.31 1257.64 801.745 1265.38 801.671C1269.25 801.634 1272.18 801.47 1274.14 801.316C1274.69 801.272 1275.17 801.229 1275.57 801.19C1275.87 801.16 1276.13 801.133 1276.35 801.109C1276.52 801.089 1276.66 801.072 1276.77 801.059L1276.9 801.043L1276.99 801.031L1277.03 801.024L1277.07 801.02L1277.08 801.019C1277.08 801.019 1277.08 801.019 1277.08 801.066L1277.11 801.227L1277.15 801.513C1277.22 802.008 1277.22 802.008 1277.22 802.009L1277.21 802.01L1277.17 802.015L1277.03 802.034C1276.97 802.042 1276.9 802.051 1276.81 802.061C1276.71 802.073 1276.59 802.087 1276.46 802.103C1275.96 802.159 1275.21 802.235 1274.22 802.313C1272.23 802.469 1269.28 802.634 1265.39 802.671C1257.6 802.745 1246.06 802.307 1231 800.263C1200.89 796.174 1156.73 785.659 1100.5 759.964C988.043 708.574 827.317 596.472 634.089 353.643C440.935 110.906 280.327 -1.08191 168.045 -52.3917C111.904 -78.0466 67.8409 -88.5336 37.8262 -92.6092C22.8185 -94.647 11.322 -95.082 3.58301 -95.0084C-0.286514 -94.9716 -3.21675 -94.8076 -5.17694 -94.6533C-6.15702 -94.5761 -6.89461 -94.5013 -7.38582 -94.446C-7.63144 -94.4183 -7.81544 -94.3956 -7.9374 -94.3798L-8.02525 -94.3683L-8.07372 -94.3617L-8.10685 -94.3571L-8.11465 -94.3559ZM-14.9503 -85.7795C-14.8781 -85.2847 -14.8776 -85.2848 -14.8762 -85.285L-14.8684 -85.2861L-14.8353 -85.2907L-14.7507 -85.3021L-14.6989 -85.3089C-14.577 -85.3246 -14.393 -85.3474 -14.1473 -85.3751C-13.6561 -85.4304 -12.9185 -85.5051 -11.9385 -85.5823C-9.97828 -85.7367 -7.04804 -85.9007 -3.17851 -85.9375C4.56051 -86.0111 16.057 -85.5761 31.0646 -83.5383C61.0794 -79.4627 105.142 -68.9757 161.283 -43.3208C273.566 7.98901 434.174 119.977 627.328 362.714C820.555 605.542 981.282 717.645 1093.74 769.035C1149.97 794.73 1194.12 805.245 1224.24 809.334C1239.3 811.378 1250.84 811.816 1258.63 811.742C1262.52 811.705 1265.47 811.54 1267.45 811.384C1268.45 811.306 1269.19 811.23 1269.7 811.173C1269.95 811.145 1270.14 811.122 1270.26 811.105L1270.41 811.086L1270.45 811.081L1270.46 811.079C1270.46 811.079 1270.46 811.079 1270.46 811.071C1270.46 811.064 1270.45 811.051 1270.45 811.03C1270.45 810.987 1270.44 810.909 1270.41 810.764L1270.39 810.584C1270.32 810.089 1270.32 810.089 1270.31 810.09L1270.31 810.091L1270.27 810.095C1270.24 810.1 1270.2 810.106 1270.14 810.114L1270.01 810.13C1269.9 810.143 1269.76 810.16 1269.59 810.18C1269.47 810.193 1269.35 810.206 1269.21 810.221C1269.1 810.232 1268.99 810.243 1268.87 810.255C1268.46 810.296 1267.96 810.341 1267.38 810.387C1265.42 810.541 1262.49 810.705 1258.62 810.742C1250.88 810.816 1239.38 810.381 1224.37 808.343C1194.36 804.267 1150.3 793.78 1094.15 768.125C981.872 716.816 821.264 604.827 628.11 362.091C434.883 119.262 274.156 7.15948 161.699 -44.2303C105.471 -69.9252 61.3129 -80.4402 31.1992 -84.5292C16.1427 -86.5736 4.59803 -87.0115 -3.188 -86.9374C-7.08099 -86.9004 -10.0343 -86.7354 -12.017 -86.5792C-13.0083 -86.5012 -13.757 -86.4253 -14.2592 -86.3688C-14.5103 -86.3405 -14.6998 -86.3171 -14.8272 -86.3006L-14.8942 -86.2918L-14.9716 -86.2814L-15.0087 -86.2762L-15.0185 -86.2748C-15.021 -86.2745 -15.0224 -86.2743 -14.9503 -85.7795ZM-21.6377 -76.2141C-21.6392 -76.2139 -21.6396 -76.2138 -21.7118 -76.7086C-21.784 -77.2033 -21.7825 -77.2036 -21.78 -77.2039L-21.7703 -77.2053L-21.7331 -77.2105C-21.7005 -77.215 -21.6524 -77.2215 -21.5887 -77.2297C-21.4613 -77.2462 -21.2718 -77.2696 -21.0207 -77.2979C-20.5185 -77.3544 -19.7698 -77.4302 -18.7785 -77.5083C-16.7958 -77.6645 -13.8425 -77.8295 -9.94952 -77.8665C-2.1635 -77.9406 9.38112 -77.5027 24.4377 -75.4582C54.5513 -71.3693 98.709 -60.8543 154.938 -35.1594C267.395 16.2304 428.121 128.333 621.349 371.162C814.502 613.898 975.111 725.887 1087.39 777.196C1143.53 802.851 1187.6 813.338 1217.61 817.414C1232.62 819.452 1244.12 819.887 1251.85 819.813C1255.72 819.776 1258.65 819.612 1260.61 819.458C1261.59 819.381 1262.33 819.306 1262.82 819.251C1263 819.231 1263.14 819.214 1263.25 819.2L1263.38 819.184C1263.44 819.177 1263.48 819.17 1263.51 819.166L1263.54 819.162L1263.55 819.161C1263.55 819.16 1263.55 819.16 1263.63 819.655C1263.67 819.941 1263.69 820.062 1263.69 820.113C1263.7 820.15 1263.7 820.15 1263.69 820.15L1263.68 820.152L1263.65 820.157L1263.5 820.176C1263.45 820.183 1263.38 820.192 1263.3 820.202C1263.2 820.214 1263.08 820.228 1262.94 820.244C1262.43 820.301 1261.68 820.377 1260.69 820.455C1258.71 820.611 1255.76 820.776 1251.86 820.813C1244.08 820.887 1232.53 820.449 1217.48 818.405C1187.36 814.316 1143.21 803.801 1086.98 778.106C974.52 726.716 813.794 614.613 620.566 371.785C427.412 129.048 266.804 17.0599 154.522 -34.2499C98.381 -59.9048 54.3178 -70.3918 24.3031 -74.4673C9.29545 -76.5051 -2.20102 -76.9402 -9.94004 -76.8665C-13.8096 -76.8297 -16.7398 -76.6658 -18.7 -76.5114C-19.6801 -76.4342 -20.4177 -76.3594 -20.9089 -76.3041C-21.1545 -76.2765 -21.3385 -76.2537 -21.4605 -76.2379C-21.5214 -76.2301 -21.5669 -76.2239 -21.5968 -76.2198L-21.6299 -76.2152L-21.6377 -76.2141ZM-28.4733 -67.6376C-28.4012 -67.1429 -28.4007 -67.143 -28.3992 -67.1432L-28.3914 -67.1443L-28.3583 -67.1489L-28.2986 -67.157L-28.222 -67.167C-28.1 -67.1828 -27.916 -67.2056 -27.6704 -67.2332C-27.1792 -67.2885 -26.4416 -67.3633 -25.4615 -67.4405C-23.5013 -67.5948 -20.5711 -67.7588 -16.7016 -67.7956C-8.96254 -67.8692 2.53392 -67.4342 17.5416 -65.3964C47.5563 -61.3209 91.6194 -50.8338 147.76 -25.1789C260.043 26.1309 420.651 138.119 613.805 380.855C807.032 623.684 967.758 735.787 1080.22 787.177C1136.44 812.872 1180.6 823.387 1210.72 827.476C1225.77 829.52 1237.32 829.958 1245.1 829.884C1249 829.847 1251.95 829.682 1253.93 829.526C1254.92 829.448 1255.67 829.372 1256.17 829.315L1256.32 829.298L1256.46 829.282L1256.61 829.264L1256.74 829.247L1256.89 829.228L1256.92 829.223L1256.93 829.221C1256.93 829.221 1256.93 829.221 1256.93 829.192C1256.93 829.173 1256.92 829.14 1256.92 829.086C1256.91 829.013 1256.89 828.9 1256.86 828.726C1256.79 828.231 1256.79 828.231 1256.79 828.232L1256.78 828.233L1256.75 828.237C1256.72 828.241 1256.67 828.247 1256.61 828.255L1256.49 828.271C1256.38 828.285 1256.23 828.302 1256.06 828.322C1255.57 828.377 1254.83 828.452 1253.85 828.529C1251.89 828.683 1248.96 828.847 1245.09 828.884C1237.35 828.958 1225.86 828.523 1210.85 826.485C1180.84 822.409 1136.77 811.922 1080.63 786.267C968.349 734.957 807.741 622.969 614.587 380.233C421.36 137.404 260.633 25.3013 148.176 -26.0885C91.9475 -51.7834 47.7898 -62.2983 17.6761 -66.3873C2.6196 -68.4317 -8.92503 -68.8696 -16.7111 -68.7956C-20.604 -68.7585 -23.5573 -68.5935 -25.54 -68.4374C-26.5314 -68.3593 -27.2801 -68.2835 -27.7823 -68.2269C-27.928 -68.2105 -28.0529 -68.1958 -28.157 -68.183L-28.247 -68.1719L-28.3502 -68.1588C-28.4139 -68.1505 -28.462 -68.144 -28.4946 -68.1396L-28.5318 -68.1344L-28.5416 -68.133C-28.544 -68.1326 -28.5455 -68.1324 -28.4733 -67.6376ZM-35.1608 -58.0722C-35.1622 -58.072 -35.1627 -58.072 -35.2349 -58.5667C-35.307 -59.0615 -35.3055 -59.0617 -35.3031 -59.062L-35.2933 -59.0634L-35.2561 -59.0686L-35.2189 -59.0737L-35.1645 -59.081L-35.1117 -59.0878C-34.9844 -59.1043 -34.7949 -59.1277 -34.5438 -59.156C-34.0416 -59.2125 -33.2929 -59.2884 -32.3015 -59.3665C-30.3188 -59.5226 -27.3656 -59.6876 -23.4726 -59.7246C-15.6866 -59.7987 -4.14193 -59.3608 10.9146 -57.3164C41.0283 -53.2274 85.1859 -42.7125 141.415 -17.0175C253.872 34.3723 414.598 146.475 607.826 389.304C800.979 632.04 961.588 744.028 1073.87 795.338C1130.01 820.993 1174.07 831.48 1204.09 835.556C1219.1 837.594 1230.59 838.028 1238.33 837.955C1242.2 837.918 1245.13 837.754 1247.09 837.6C1248.07 837.523 1248.81 837.448 1249.3 837.392L1249.5 837.37L1249.64 837.353L1249.73 837.342L1249.85 837.326L1249.93 837.316L1249.99 837.308L1250.02 837.304L1250.03 837.302C1250.03 837.302 1250.03 837.302 1250.1 837.797C1250.15 838.09 1250.16 838.209 1250.17 838.258C1250.17 838.292 1250.17 838.292 1250.17 838.292L1250.16 838.294L1250.12 838.299L1249.98 838.318L1249.89 838.33C1249.76 838.345 1249.61 838.364 1249.41 838.386C1248.91 838.443 1248.16 838.519 1247.17 838.597C1245.19 838.753 1242.23 838.918 1238.34 838.955C1230.56 839.029 1219.01 838.591 1203.95 836.547C1173.84 832.458 1129.68 821.943 1073.45 796.248C960.997 744.858 800.27 632.755 607.043 389.926C413.889 147.19 253.281 35.2018 140.999 -16.108C84.8579 -41.7629 40.7948 -52.2499 10.78 -56.3255C-4.2276 -58.3633 -15.7241 -58.7983 -23.4631 -58.7247C-27.3326 -58.6879 -30.2629 -58.5239 -32.223 -58.3695C-33.2031 -58.2924 -33.9407 -58.2176 -34.4319 -58.1623C-34.6776 -58.1346 -34.8616 -58.1119 -34.9835 -58.0961C-35.0445 -58.0882 -35.09 -58.0821 -35.1198 -58.078L-35.153 -58.0733L-35.1608 -58.0722ZM-41.9964 -49.4958C-41.9242 -49.001 -41.9237 -49.0011 -41.9223 -49.0013L-41.9145 -49.0024L-41.8814 -49.007C-41.8515 -49.0111 -41.806 -49.0173 -41.745 -49.0252C-41.6231 -49.0409 -41.4391 -49.0637 -41.1935 -49.0913C-40.7022 -49.1466 -39.9647 -49.2214 -38.9846 -49.2986C-37.0244 -49.453 -34.0942 -49.617 -30.2246 -49.6538C-22.4856 -49.7274 -10.9891 -49.2924 4.01852 -47.2545C34.0333 -43.179 78.0964 -32.692 134.237 -7.03708C246.52 44.2727 407.128 156.261 600.282 398.997C793.509 641.826 954.235 753.929 1066.69 805.319C1122.92 831.014 1167.08 841.529 1197.19 845.618C1212.25 847.662 1223.79 848.1 1231.58 848.026C1235.47 847.989 1238.43 847.824 1240.41 847.668C1241.4 847.59 1242.15 847.514 1242.65 847.457C1242.9 847.429 1243.09 847.405 1243.22 847.389L1243.36 847.37L1243.4 847.365L1243.41 847.363C1243.41 847.363 1243.41 847.363 1243.34 846.868C1243.3 846.587 1243.28 846.466 1243.28 846.413C1243.27 846.373 1243.27 846.373 1243.27 846.373L1243.26 846.375L1243.23 846.379C1243.2 846.383 1243.15 846.389 1243.09 846.397L1242.96 846.413C1242.85 846.427 1242.71 846.444 1242.54 846.463C1242.05 846.519 1241.31 846.594 1240.33 846.671C1238.37 846.825 1235.44 846.989 1231.57 847.026C1223.83 847.099 1212.33 846.664 1197.33 844.627C1167.31 840.551 1123.25 830.064 1067.11 804.409C954.826 753.099 794.218 641.111 601.064 398.375C407.837 155.546 247.11 43.4432 134.653 -7.94662C78.4244 -33.6415 34.2667 -44.1565 4.15309 -48.2454C-10.9035 -50.2899 -22.4481 -50.7278 -30.2341 -50.6537C-34.1271 -50.6167 -37.0804 -50.4517 -39.0631 -50.2955C-40.0544 -50.2175 -40.8031 -50.1416 -41.3053 -50.0851C-41.5564 -50.0568 -41.7459 -50.0334 -41.8733 -50.0169L-41.9485 -50.007L-42.0177 -49.9977L-42.0548 -49.9925L-42.0646 -49.9911C-42.0671 -49.9908 -42.0686 -49.9906 -41.9964 -49.4958ZM-48.6838 -39.9304C-48.6853 -39.9302 -48.6857 -39.9301 -48.7579 -40.4249C-48.8301 -40.9196 -48.8286 -40.9198 -48.8262 -40.9202L-48.8164 -40.9216L-48.7792 -40.9268C-48.7466 -40.9313 -48.6985 -40.9377 -48.6348 -40.946C-48.5074 -40.9624 -48.318 -40.9859 -48.0668 -41.0141C-47.5646 -41.0707 -46.816 -41.1465 -45.8246 -41.2246C-43.8419 -41.3807 -40.8886 -41.5458 -36.9956 -41.5828C-29.2096 -41.6568 -17.665 -41.219 -2.60844 -39.1745C27.5052 -35.0855 71.6629 -24.5706 127.892 1.12431C240.349 52.5141 401.075 164.617 594.302 407.446C787.456 650.182 948.064 762.17 1060.35 813.48C1116.49 839.135 1160.55 849.622 1190.57 853.698C1205.57 855.735 1217.07 856.17 1224.81 856.097C1228.68 856.06 1231.61 855.896 1233.57 855.742C1234.09 855.701 1234.54 855.661 1234.92 855.623C1235.26 855.591 1235.55 855.56 1235.78 855.534C1235.95 855.515 1236.09 855.498 1236.2 855.484L1236.33 855.468C1236.39 855.46 1236.44 855.454 1236.47 855.45L1236.5 855.445L1236.51 855.444C1236.51 855.444 1236.51 855.444 1236.51 855.487C1236.52 855.54 1236.54 855.662 1236.58 855.939L1236.62 856.226C1236.64 856.337 1236.64 856.388 1236.65 856.413C1236.65 856.425 1236.65 856.43 1236.65 856.432C1236.65 856.434 1236.65 856.434 1236.65 856.434L1236.64 856.436L1236.6 856.441L1236.46 856.46C1236.33 856.476 1236.14 856.5 1235.89 856.528C1235.39 856.585 1234.64 856.66 1233.65 856.739C1231.66 856.895 1228.71 857.06 1224.82 857.097C1217.03 857.171 1205.49 856.733 1190.43 854.688C1160.32 850.599 1116.16 840.085 1059.93 814.39C947.474 763 786.747 650.897 593.52 408.068C400.366 165.332 239.758 53.3437 127.476 2.03385C71.3348 -23.621 27.2717 -34.1081 -2.74301 -38.1836C-17.7507 -40.2214 -29.2471 -40.6564 -36.9862 -40.5828C-40.8557 -40.546 -43.7859 -40.3821 -45.7461 -40.2277C-46.7262 -40.1505 -47.4638 -40.0757 -47.955 -40.0204C-48.2006 -39.9928 -48.3846 -39.97 -48.5066 -39.9542L-48.5766 -39.9451L-48.6429 -39.9361L-48.676 -39.9315L-48.6838 -39.9304ZM-55.5194 -31.3539C-55.4473 -30.8592 -55.4468 -30.8592 -55.4453 -30.8595L-55.4375 -30.8606L-55.4044 -30.8652C-55.3745 -30.8693 -55.3291 -30.8754 -55.2681 -30.8833C-55.1461 -30.8991 -54.9621 -30.9218 -54.7165 -30.9495C-54.2253 -31.0048 -53.4877 -31.0796 -52.5076 -31.1568C-50.5474 -31.3111 -47.6172 -31.4751 -43.7477 -31.5119C-36.0087 -31.5855 -24.5122 -31.1505 -9.50454 -29.1127C20.5102 -25.0371 64.5733 -14.5501 120.714 11.1048C232.996 62.4146 393.605 174.403 586.758 417.139C779.986 659.968 940.712 772.071 1053.17 823.46C1109.4 849.155 1153.56 859.67 1183.67 863.759C1198.73 865.804 1210.27 866.242 1218.06 866.168C1221.95 866.131 1224.9 865.966 1226.89 865.81C1227.41 865.768 1227.87 865.727 1228.26 865.689C1228.6 865.656 1228.89 865.625 1229.13 865.599C1229.38 865.571 1229.57 865.547 1229.7 865.531C1229.76 865.523 1229.81 865.516 1229.84 865.512L1229.88 865.506L1229.89 865.505C1229.89 865.505 1229.89 865.505 1229.89 865.495C1229.89 865.489 1229.89 865.479 1229.88 865.464L1229.88 865.423L1229.87 865.362L1229.85 865.242L1229.82 865.01C1229.78 864.74 1229.76 864.617 1229.75 864.561C1229.75 864.515 1229.75 864.515 1229.74 864.515L1229.74 864.516L1229.7 864.521C1229.67 864.525 1229.63 864.531 1229.57 864.539L1229.44 864.555L1229.3 864.572C1229.22 864.582 1229.12 864.593 1229.02 864.605C1228.73 864.638 1228.35 864.677 1227.9 864.72C1227.57 864.749 1227.21 864.781 1226.81 864.812C1224.85 864.967 1221.92 865.131 1218.05 865.168C1210.31 865.241 1198.81 864.806 1183.8 862.768C1153.79 858.693 1109.73 848.206 1053.59 822.551C941.303 771.241 780.695 659.253 587.541 416.517C394.314 173.688 233.587 61.585 121.13 10.1952C64.9014 -15.4997 20.7437 -26.0146 -9.36997 -30.1036C-24.4265 -32.148 -35.9711 -32.5859 -43.7572 -32.5119C-47.6502 -32.4748 -50.6034 -32.3098 -52.5861 -32.1537C-53.5775 -32.0756 -54.3262 -31.9998 -54.8284 -31.9432C-55.0795 -31.915 -55.2689 -31.8915 -55.3963 -31.8751C-55.46 -31.8668 -55.5082 -31.8603 -55.5407 -31.8558L-55.5779 -31.8507L-55.5877 -31.8493C-55.5901 -31.8489 -55.5916 -31.8487 -55.5194 -31.3539ZM-62.2069 -21.7885C-62.2083 -21.7883 -62.2088 -21.7882 -62.281 -22.283C-62.3531 -22.7778 -62.3517 -22.778 -62.3492 -22.7783L-62.3394 -22.7797L-62.3022 -22.7849L-62.2288 -22.7948L-62.1578 -22.8041C-62.0305 -22.8206 -61.841 -22.844 -61.5899 -22.8723C-61.0877 -22.9288 -60.339 -23.0047 -59.3476 -23.0828C-57.365 -23.2389 -54.4117 -23.4039 -50.5187 -23.4409C-42.7327 -23.515 -31.188 -23.0771 -16.1315 -21.0327C13.9822 -16.9437 58.1398 -6.42874 114.368 19.2662C226.826 70.656 387.552 182.759 580.779 425.588C773.933 668.324 934.541 780.312 1046.82 831.622C1102.96 857.277 1147.03 867.764 1177.04 871.839C1192.05 873.877 1203.55 874.312 1211.29 874.239C1215.16 874.202 1218.09 874.038 1220.05 873.883C1221.03 873.806 1221.76 873.732 1222.25 873.676C1222.43 873.657 1222.57 873.64 1222.68 873.626L1222.81 873.61C1222.87 873.602 1222.91 873.596 1222.94 873.592L1222.98 873.587L1222.98 873.586C1222.98 873.586 1222.98 873.586 1222.99 873.638C1223 873.697 1223.02 873.82 1223.06 874.081C1223.13 874.575 1223.13 874.576 1223.13 874.576L1223.12 874.577L1223.08 874.583C1223.05 874.587 1223 874.593 1222.93 874.602C1222.88 874.609 1222.82 874.617 1222.74 874.626C1222.64 874.638 1222.51 874.653 1222.37 874.67C1221.86 874.726 1221.12 874.802 1220.12 874.88C1218.14 875.037 1215.19 875.202 1211.3 875.239C1203.51 875.313 1191.96 874.875 1176.91 872.83C1146.79 868.741 1102.64 858.226 1046.41 832.531C933.951 781.142 773.224 669.039 579.997 426.21C386.843 183.474 226.235 71.4855 113.953 20.1757C57.8118 -5.47919 13.7487 -15.9662 -16.2661 -20.0418C-31.2737 -22.0796 -42.7702 -22.5146 -50.5092 -22.441C-54.3787 -22.4042 -57.309 -22.2402 -59.2692 -22.0858C-60.2492 -22.0087 -60.9868 -21.9339 -61.478 -21.8786C-61.7237 -21.8509 -61.9077 -21.8281 -62.0296 -21.8124L-62.0906 -21.8044L-62.1659 -21.7943L-62.1991 -21.7896L-62.2069 -21.7885ZM-69.0425 -13.2121C-68.9703 -12.7173 -68.9698 -12.7174 -68.9684 -12.7176L-68.9606 -12.7187L-68.9275 -12.7233L-68.8806 -12.7297L-68.7911 -12.7415C-68.6692 -12.7572 -68.4852 -12.78 -68.2396 -12.8076C-67.7484 -12.8629 -67.0108 -12.9377 -66.0307 -13.0149C-64.0705 -13.1693 -61.1403 -13.3332 -57.2707 -13.37C-49.5317 -13.4437 -38.0352 -13.0086 -23.0276 -10.9708C6.98714 -6.89529 51.0503 3.59174 107.191 29.2466C219.473 80.5564 380.082 192.545 573.235 435.281C766.463 678.11 927.189 790.213 1039.65 841.602C1095.88 867.297 1140.03 877.812 1170.15 881.901C1185.2 883.946 1196.75 884.384 1204.53 884.31C1208.43 884.273 1211.38 884.107 1213.36 883.951C1214.35 883.873 1215.1 883.797 1215.6 883.741C1215.86 883.713 1216.05 883.689 1216.17 883.673C1216.24 883.664 1216.28 883.658 1216.32 883.654L1216.35 883.648L1216.36 883.647C1216.37 883.647 1216.37 883.647 1216.36 883.596C1216.35 883.539 1216.33 883.415 1216.3 883.152C1216.22 882.657 1216.22 882.657 1216.22 882.657L1216.21 882.658L1216.18 882.663L1216.12 882.671L1216.04 882.681L1215.92 882.697C1215.85 882.706 1215.76 882.716 1215.67 882.727L1215.49 882.747C1215 882.802 1214.26 882.877 1213.28 882.954C1211.32 883.109 1208.39 883.273 1204.52 883.309C1196.79 883.383 1185.29 882.948 1170.28 880.91C1140.27 876.835 1096.2 866.348 1040.06 840.693C927.78 789.383 767.172 677.395 574.018 434.658C380.79 191.83 220.064 79.7269 107.607 28.3371C51.3783 2.64219 7.22063 -7.87276 -22.893 -11.9617C-37.9496 -14.0062 -49.4942 -14.4441 -57.2802 -14.37C-61.1732 -14.333 -64.1265 -14.168 -66.1092 -14.0118C-67.1005 -13.9337 -67.8492 -13.8579 -68.3514 -13.8014C-68.6025 -13.7731 -68.792 -13.7497 -68.9194 -13.7332L-69.015 -13.7206L-69.0638 -13.714L-69.1009 -13.7088L-69.1107 -13.7074C-69.1132 -13.7071 -69.1147 -13.7068 -69.0425 -13.2121ZM-75.7299 -3.64667C-75.7314 -3.64646 -75.7319 -3.64639 -75.804 -4.14115C-75.8762 -4.63592 -75.8747 -4.63613 -75.8723 -4.63648L-75.8625 -4.63788L-75.8253 -4.64306C-75.7927 -4.64754 -75.7446 -4.65403 -75.6809 -4.66227C-75.5535 -4.67873 -75.3641 -4.70217 -75.113 -4.73043C-74.6108 -4.78697 -73.8621 -4.86282 -72.8707 -4.94089C-70.888 -5.09704 -67.9348 -5.26205 -64.0417 -5.29908C-56.2557 -5.37314 -44.7111 -4.93525 -29.6546 -2.89081C0.459107 1.19817 44.6168 11.7131 100.845 37.408C213.303 88.7978 374.029 200.901 567.256 443.729C760.41 686.466 921.018 798.454 1033.3 849.764C1089.44 875.419 1133.5 885.906 1163.52 889.981C1178.53 892.019 1190.02 892.454 1197.76 892.38C1201.63 892.344 1204.56 892.18 1206.52 892.025C1207.5 891.948 1208.24 891.873 1208.73 891.818C1208.83 891.807 1208.91 891.797 1208.99 891.788L1209.16 891.768L1209.28 891.752C1209.34 891.744 1209.39 891.738 1209.42 891.734L1209.45 891.729L1209.46 891.728C1209.46 891.728 1209.46 891.728 1209.47 891.778C1209.48 891.835 1209.5 891.958 1209.53 892.222C1209.57 892.501 1209.59 892.622 1209.6 892.676C1209.6 892.718 1209.6 892.718 1209.6 892.718L1209.59 892.719L1209.56 892.724L1209.51 892.73L1209.41 892.744C1209.28 892.76 1209.09 892.784 1208.84 892.812C1208.34 892.868 1207.59 892.944 1206.6 893.022C1204.62 893.178 1201.67 893.343 1197.77 893.38C1189.99 893.455 1178.44 893.017 1163.38 890.972C1133.27 886.883 1089.11 876.368 1032.88 850.673C920.428 799.284 759.701 687.181 566.474 444.352C373.32 201.616 212.712 89.6274 100.43 38.3176C44.2887 12.6627 0.225616 2.17564 -29.7891 -1.8999C-44.7968 -3.93772 -56.2932 -4.37273 -64.0323 -4.29912C-67.9018 -4.26232 -70.832 -4.09835 -72.7922 -3.94398C-73.7723 -3.8668 -74.5099 -3.79201 -75.0011 -3.73671C-75.2467 -3.70906 -75.4307 -3.68628 -75.5527 -3.67052L-75.6186 -3.6619L-75.689 -3.6524L-75.7221 -3.64777L-75.7299 -3.64667ZM-82.5656 4.92978C-82.4934 5.42454 -82.4929 5.42447 -82.4914 5.42426L-82.4837 5.42316L-82.4505 5.41853L-82.382 5.40929L-82.3142 5.4004C-82.1923 5.38464 -82.0082 5.36186 -81.7626 5.33422C-81.2714 5.27892 -80.5338 5.20413 -79.5537 5.12694C-77.5936 4.97257 -74.6633 4.80861 -70.7938 4.77181C-63.0548 4.6982 -51.5583 5.13321 -36.5506 7.17103C-6.53591 11.2466 37.5272 21.7336 93.6682 47.3885C205.95 98.6983 366.559 210.686 559.712 453.423C752.94 696.252 913.666 808.354 1026.12 859.744C1082.35 885.439 1126.51 895.954 1156.62 900.043C1171.68 902.087 1183.22 902.525 1191.01 902.451C1194.9 902.414 1197.86 902.249 1199.84 902.093C1200.83 902.015 1201.58 901.939 1202.08 901.883C1202.18 901.872 1202.27 901.861 1202.35 901.851C1202.47 901.837 1202.57 901.825 1202.65 901.815L1202.74 901.803L1202.79 901.795L1202.83 901.79L1202.84 901.789C1202.84 901.788 1202.84 901.788 1202.77 901.293C1202.73 901.021 1202.72 900.898 1202.71 900.843C1202.7 900.799 1202.7 900.799 1202.7 900.799L1202.69 900.8L1202.66 900.805C1202.63 900.809 1202.58 900.815 1202.52 900.823L1202.39 900.839C1202.28 900.853 1202.14 900.87 1201.97 900.889C1201.67 900.923 1201.27 900.964 1200.79 901.009C1200.48 901.037 1200.14 901.066 1199.76 901.096C1197.8 901.251 1194.87 901.415 1191 901.451C1183.26 901.525 1171.77 901.09 1156.76 899.052C1126.74 894.977 1082.68 884.49 1026.54 858.835C914.257 807.525 753.649 695.537 560.495 452.8C367.267 209.971 206.541 97.8688 94.0839 46.479C37.8553 20.784 -6.30242 10.2691 -36.4161 6.18012C-51.4726 4.13568 -63.0172 3.69779 -70.8033 3.77185C-74.6963 3.80888 -77.6495 3.97389 -79.6322 4.13004C-80.6236 4.20811 -81.3723 4.28396 -81.8745 4.34049L-82.0104 4.356L-82.1148 4.36823C-82.2503 4.38427 -82.3595 4.39794 -82.4424 4.40866C-82.5061 4.4169 -82.5543 4.42339 -82.5868 4.42787L-82.624 4.43305L-82.6338 4.43445C-82.6362 4.4348 -82.6377 4.43501 -82.5656 4.92978ZM-89.253 14.4952C-89.2544 14.4954 -89.2549 14.4955 -89.3271 14.0007C-89.3992 13.5059 -89.3978 13.5057 -89.3953 13.5054L-89.3855 13.504L-89.3484 13.4988C-89.3158 13.4943 -89.2676 13.4878 -89.204 13.4796L-89.0845 13.4644C-88.9675 13.4498 -88.8179 13.4319 -88.636 13.4114C-88.1338 13.3549 -87.3851 13.279 -86.3938 13.201C-84.4111 13.0448 -81.4578 12.8798 -77.5648 12.8428C-69.7788 12.7687 -58.2341 13.2066 -43.1776 15.251C-13.0639 19.34 31.0937 29.855 87.3224 55.5499C199.779 106.94 360.506 219.042 553.733 461.871C746.887 704.608 907.495 816.596 1019.78 867.906C1075.92 893.56 1119.98 904.048 1150 908.123C1165 910.161 1176.5 910.596 1184.24 910.522C1188.11 910.485 1191.04 910.322 1193 910.167C1193.51 910.127 1193.96 910.087 1194.34 910.05C1194.68 910.017 1194.97 909.986 1195.21 909.96L1195.29 909.95L1195.4 909.938C1195.49 909.928 1195.57 909.918 1195.63 909.91L1195.76 909.894C1195.82 909.886 1195.87 909.88 1195.9 909.876L1195.93 909.871L1195.94 909.87C1195.94 909.87 1195.94 909.87 1195.94 909.895L1195.94 909.911C1195.95 909.964 1195.97 910.086 1196.01 910.364C1196.08 910.859 1196.08 910.859 1196.08 910.86L1196.07 910.861L1196.03 910.866L1195.98 910.873L1195.89 910.886C1195.76 910.902 1195.57 910.925 1195.32 910.954C1194.82 911.01 1194.07 911.086 1193.08 911.164C1191.1 911.32 1188.14 911.485 1184.25 911.522C1176.46 911.596 1164.92 911.158 1149.86 909.114C1119.75 905.025 1075.59 894.51 1019.36 868.815C906.905 817.425 746.178 705.323 552.951 462.494C359.797 219.757 199.189 107.769 86.9067 56.4594C30.7657 30.8045 -13.2974 20.3175 -43.3122 16.242C-58.3198 14.2041 -69.8163 13.7691 -77.5553 13.8427C-81.4248 13.8795 -84.3551 14.0435 -86.3153 14.1979C-87.2953 14.2751 -88.0329 14.3498 -88.5241 14.4051C-88.7698 14.4328 -88.9538 14.4556 -89.0757 14.4713C-89.1367 14.4792 -89.1822 14.4853 -89.2121 14.4895L-89.2452 14.4941L-89.253 14.4952ZM-96.0886 23.0716C-96.0164 23.5664 -96.016 23.5663 -96.0145 23.5661L-96.0067 23.565L-95.9736 23.5604C-95.9437 23.5563 -95.8983 23.5501 -95.8373 23.5423C-95.7153 23.5265 -95.5313 23.5037 -95.2857 23.4761C-94.7945 23.4208 -94.0569 23.346 -93.0768 23.2688C-91.1166 23.1144 -88.1864 22.9505 -84.3168 22.9137C-76.5778 22.8401 -65.0814 23.2751 -50.0737 25.3129C-20.059 29.3884 24.0042 39.8755 80.1452 65.5304C192.427 116.84 353.035 228.828 546.189 471.565C739.417 714.394 900.143 826.496 1012.6 877.886C1068.83 903.581 1112.99 914.096 1143.1 918.185C1158.16 920.229 1169.7 920.667 1177.49 920.593C1181.38 920.556 1184.33 920.391 1186.32 920.235C1187.31 920.157 1188.06 920.081 1188.56 920.025C1188.81 919.996 1189 919.973 1189.13 919.956C1189.19 919.948 1189.24 919.942 1189.27 919.937L1189.31 919.932L1189.32 919.931C1189.32 919.93 1189.32 919.93 1189.31 919.891C1189.31 919.838 1189.29 919.717 1189.25 919.435C1189.18 918.941 1189.18 918.941 1189.18 918.941L1189.17 918.942L1189.13 918.947L1189.08 918.953L1189 918.965L1188.87 918.981C1188.76 918.994 1188.62 919.011 1188.45 919.031C1187.96 919.086 1187.22 919.161 1186.24 919.238C1184.28 919.392 1181.35 919.556 1177.48 919.593C1169.74 919.667 1158.24 919.232 1143.23 917.194C1113.22 913.118 1069.16 902.631 1013.02 876.977C900.734 825.667 740.126 713.679 546.972 470.942C353.744 228.113 193.018 116.011 80.5608 64.6208C24.3322 38.9259 -19.8255 28.411 -49.9391 24.322C-64.9957 22.2775 -76.5403 21.8396 -84.3263 21.9137C-88.2193 21.9507 -91.1726 22.1157 -93.1553 22.2719C-94.1466 22.35 -94.8953 22.4258 -95.3975 22.4823C-95.5476 22.4992 -95.6757 22.5144 -95.7816 22.5274C-95.853 22.5361 -95.9142 22.5439 -95.9655 22.5505C-96.0292 22.5588 -96.0773 22.5652 -96.1099 22.5697L-96.147 22.5749L-96.1568 22.5763C-96.1593 22.5767 -96.1608 22.5769 -96.0886 23.0716ZM-102.776 32.637C-102.777 32.6373 -102.778 32.6373 -102.85 32.1426C-102.922 31.6478 -102.921 31.6476 -102.918 31.6472L-102.909 31.6458L-102.871 31.6407L-102.836 31.6358C-102.807 31.6319 -102.771 31.6271 -102.727 31.6214C-102.6 31.605 -102.41 31.5815 -102.159 31.5533C-101.657 31.4967 -100.908 31.4209 -99.9168 31.3428C-97.9341 31.1867 -94.9809 31.0217 -91.0879 30.9846C-83.3018 30.9106 -71.7572 31.3485 -56.7007 33.3929C-26.587 37.4819 17.5707 47.9968 73.7993 73.6917C186.256 125.082 346.983 237.184 540.21 480.013C733.364 722.749 893.972 834.738 1006.25 886.048C1062.4 911.702 1106.46 922.189 1136.47 926.265C1151.48 928.303 1162.98 928.738 1170.72 928.664C1174.59 928.627 1177.52 928.463 1179.48 928.309C1180.46 928.232 1181.19 928.157 1181.69 928.102C1181.78 928.091 1181.87 928.08 1181.95 928.071L1182.11 928.052L1182.24 928.036C1182.3 928.028 1182.34 928.022 1182.37 928.017L1182.41 928.013L1182.41 928.012C1182.42 928.012 1182.42 928.011 1182.49 928.506L1182.53 928.787C1182.54 928.886 1182.55 928.94 1182.55 928.968C1182.56 929.001 1182.56 929.001 1182.56 929.002L1182.55 929.003L1182.51 929.008C1182.48 929.013 1182.43 929.019 1182.37 929.027C1182.24 929.044 1182.05 929.067 1181.8 929.096C1181.29 929.152 1180.55 929.228 1179.55 929.306C1177.57 929.462 1174.62 929.627 1170.73 929.664C1162.94 929.738 1151.4 929.3 1136.34 927.256C1106.23 923.167 1062.07 912.652 1005.84 886.957C893.382 835.567 732.655 723.465 539.428 480.636C346.274 237.899 185.666 125.911 73.3836 74.6013C17.2426 48.9464 -26.8205 38.4594 -56.8352 34.3838C-71.8429 32.346 -83.3394 31.911 -91.0784 31.9846C-94.9479 32.0214 -97.8781 32.1854 -99.8383 32.3397C-100.818 32.4169 -101.556 32.4917 -102.047 32.547L-102.137 32.5572C-102.338 32.5803 -102.492 32.5994 -102.599 32.6132C-102.66 32.6211 -102.705 32.6272 -102.735 32.6313L-102.768 32.6359L-102.776 32.637ZM-109.612 41.2135C-109.539 41.7083 -109.539 41.7082 -109.538 41.708L-109.53 41.7069L-109.497 41.7023C-109.467 41.6981 -109.421 41.692 -109.36 41.6841C-109.238 41.6684 -109.054 41.6456 -108.809 41.6179C-108.318 41.5626 -107.58 41.4879 -106.6 41.4107C-104.64 41.2563 -101.709 41.0923 -97.8399 41.0555C-90.1009 40.9819 -78.6044 41.4169 -63.5968 43.4548C-33.582 47.5303 10.4811 58.0173 66.6221 83.6722C178.904 134.982 339.512 246.97 532.666 489.707C725.894 732.535 886.62 844.638 999.077 896.028C1055.31 921.723 1099.46 932.238 1129.58 936.327C1144.63 938.371 1156.18 938.809 1163.96 938.735C1167.86 938.698 1170.81 938.533 1172.79 938.377C1173.78 938.299 1174.53 938.223 1175.04 938.166C1175.16 938.153 1175.26 938.14 1175.36 938.129C1175.43 938.12 1175.5 938.112 1175.55 938.105L1175.6 938.098C1175.67 938.09 1175.72 938.084 1175.75 938.079L1175.79 938.074L1175.79 938.072C1175.8 938.072 1175.8 938.072 1175.79 938.038C1175.79 938.009 1175.78 937.955 1175.77 937.854L1175.73 937.577C1175.65 937.082 1175.65 937.082 1175.65 937.083L1175.64 937.084L1175.61 937.088L1175.55 937.096L1175.48 937.107L1175.35 937.123C1175.28 937.13 1175.21 937.14 1175.12 937.15C1175.06 937.157 1175 937.165 1174.92 937.173C1174.75 937.192 1174.55 937.213 1174.32 937.237C1174.21 937.248 1174.08 937.261 1173.95 937.273C1173.85 937.283 1173.75 937.292 1173.64 937.302L1173.43 937.321C1173.21 937.34 1172.97 937.36 1172.71 937.38C1170.75 937.534 1167.82 937.698 1163.95 937.735C1156.22 937.809 1144.72 937.374 1129.71 935.336C1099.7 931.26 1055.63 920.773 999.493 895.119C887.211 843.809 726.603 731.82 533.449 489.084C340.221 246.255 179.495 134.152 67.0378 82.7627C10.8091 57.0678 -33.3485 46.5528 -63.4622 42.4638C-78.5187 40.4194 -90.0633 39.9815 -97.8494 40.0556C-101.742 40.0926 -104.696 40.2576 -106.678 40.4138C-107.67 40.4918 -108.418 40.5677 -108.921 40.6242C-109.172 40.6525 -109.361 40.6759 -109.489 40.6924L-109.591 40.7058L-109.633 40.7116L-109.67 40.7168L-109.68 40.7182C-109.682 40.7185 -109.684 40.7187 -109.612 41.2135ZM-116.299 50.7789C-116.301 50.7791 -116.301 50.7792 -116.373 50.2844C-116.445 49.7897 -116.444 49.7894 -116.441 49.7891L-116.432 49.7877L-116.394 49.7825C-116.362 49.778 -116.314 49.7715 -116.25 49.7633C-116.123 49.7468 -115.933 49.7234 -115.682 49.6951C-115.18 49.6386 -114.431 49.5627 -113.44 49.4847C-111.457 49.3285 -108.504 49.1635 -104.611 49.1265C-96.8249 49.0524 -85.2802 49.4903 -70.2237 51.5348C-40.1101 55.6237 4.04762 66.1387 60.2762 91.8336C172.733 143.223 333.46 255.326 526.687 498.155C719.841 740.891 880.449 852.88 992.731 904.189C1048.87 929.844 1092.94 940.331 1122.95 944.407C1137.96 946.445 1149.45 946.88 1157.19 946.806C1161.06 946.769 1163.99 946.605 1165.95 946.451C1166.93 946.374 1167.67 946.299 1168.16 946.244C1168.33 946.224 1168.48 946.207 1168.59 946.193L1168.71 946.177L1168.77 946.17L1168.85 946.159L1168.88 946.155L1168.89 946.154C1168.89 946.153 1168.89 946.153 1168.97 946.648C1169.04 947.143 1169.04 947.143 1169.03 947.143L1169.02 947.145L1168.99 947.15C1168.95 947.155 1168.91 947.161 1168.84 947.169C1168.71 947.186 1168.53 947.209 1168.27 947.237C1167.77 947.294 1167.02 947.37 1166.03 947.448C1164.05 947.604 1161.1 947.769 1157.2 947.806C1149.42 947.88 1137.87 947.442 1122.82 945.398C1092.7 941.309 1048.54 930.794 992.316 905.099C879.859 853.709 719.132 741.606 525.905 498.778C332.751 256.041 172.143 144.053 59.8606 92.7431C3.71957 67.0883 -40.3435 56.6012 -70.3583 52.5257C-85.3659 50.4879 -96.8624 50.0528 -104.601 50.1264C-108.471 50.1633 -111.401 50.3272 -113.361 50.4816C-114.341 50.5588 -115.079 50.6336 -115.57 50.6889C-115.816 50.7165 -116 50.7393 -116.122 50.7551C-116.183 50.7629 -116.228 50.7691 -116.258 50.7732L-116.291 50.7778L-116.299 50.7789ZM-123.135 59.3554C-123.063 59.8501 -123.062 59.85 -123.061 59.8498L-123.053 59.8487L-123.02 59.8441C-122.99 59.84 -122.944 59.8339 -122.883 59.826C-122.761 59.8102 -122.577 59.7874 -122.332 59.7598C-121.841 59.7045 -121.103 59.6297 -120.123 59.5525C-118.163 59.3982 -115.232 59.2342 -111.363 59.1974C-103.624 59.1238 -92.1275 59.5588 -77.1198 61.5966C-47.1051 65.6721 -3.04195 76.1592 53.099 101.814C165.381 153.124 325.989 265.112 519.143 507.848C712.371 750.677 873.097 862.78 985.554 914.17C1041.78 939.865 1085.94 950.38 1116.05 954.469C1131.11 956.513 1142.66 956.951 1150.44 956.877C1154.33 956.84 1157.29 956.675 1159.27 956.519C1160.26 956.441 1161.01 956.365 1161.51 956.308C1161.76 956.28 1161.95 956.257 1162.08 956.24C1162.14 956.232 1162.19 956.225 1162.22 956.221L1162.26 956.216L1162.27 956.214C1162.27 956.214 1162.28 956.214 1162.2 955.719C1162.13 955.224 1162.13 955.224 1162.13 955.225L1162.12 955.226L1162.09 955.23C1162.06 955.234 1162.01 955.24 1161.95 955.248L1161.83 955.264C1161.71 955.278 1161.57 955.295 1161.4 955.315C1160.91 955.37 1160.17 955.445 1159.19 955.522C1157.23 955.676 1154.3 955.84 1150.43 955.877C1142.69 955.951 1131.2 955.516 1116.19 953.478C1086.17 949.402 1042.11 938.915 985.97 913.26C873.688 861.95 713.08 749.962 519.926 507.226C326.698 264.397 165.972 152.294 53.5147 100.905C-2.71391 75.2096 -46.8716 64.6947 -76.9852 60.6057C-92.0418 58.5612 -103.586 58.1234 -111.372 58.1974C-115.265 58.2345 -118.219 58.3995 -120.201 58.5556C-121.193 58.6337 -121.941 58.7095 -122.444 58.7661C-122.695 58.7943 -122.884 58.8178 -123.012 58.8342C-123.075 58.8425 -123.123 58.849 -123.156 58.8534L-123.193 58.8586L-123.203 58.86C-123.205 58.8604 -123.207 58.8606 -123.135 59.3554ZM-129.822 68.9208C-129.824 68.921 -129.824 68.921 -129.896 68.4263C-129.968 67.9315 -129.967 67.9313 -129.964 67.9309L-129.955 67.9295L-129.918 67.9244C-129.885 67.9199 -129.837 67.9134 -129.773 67.9052C-129.646 67.8887 -129.456 67.8653 -129.205 67.837C-128.703 67.7805 -127.954 67.7046 -126.963 67.6265C-124.98 67.4704 -122.027 67.3054 -118.134 67.2684C-110.348 67.1943 -98.8033 67.6322 -83.7468 69.6766C-53.6331 73.7656 -9.47543 84.2805 46.7532 109.975C159.21 161.365 319.937 273.468 513.164 516.297C706.318 759.033 866.926 871.021 979.208 922.331C1035.35 947.986 1079.41 958.473 1109.43 962.549C1124.43 964.587 1135.93 965.021 1143.67 964.948C1147.54 964.911 1150.47 964.747 1152.43 964.593C1153.41 964.516 1154.15 964.441 1154.64 964.385L1154.87 964.359C1154.94 964.35 1155.01 964.342 1155.06 964.335L1155.19 964.319C1155.25 964.311 1155.3 964.305 1155.33 964.301L1155.36 964.297L1155.37 964.295C1155.37 964.295 1155.37 964.295 1155.38 964.339C1155.38 964.394 1155.4 964.516 1155.44 964.79C1155.51 965.285 1155.51 965.285 1155.51 965.285L1155.5 965.287L1155.46 965.292C1155.43 965.296 1155.38 965.303 1155.32 965.311C1155.25 965.32 1155.16 965.331 1155.06 965.343C1154.97 965.354 1154.87 965.366 1154.75 965.379C1154.25 965.436 1153.5 965.512 1152.51 965.59C1150.53 965.746 1147.57 965.911 1143.68 965.948C1135.89 966.022 1124.35 965.584 1109.29 963.54C1079.18 959.451 1035.02 948.936 978.793 923.241C866.336 871.851 705.609 759.748 512.382 516.919C319.228 274.183 158.62 162.195 46.3375 110.885C-9.80348 85.2301 -53.8666 74.7431 -83.8813 70.6675C-98.889 68.6297 -110.385 68.1947 -118.124 68.2683C-121.994 68.3051 -124.924 68.4691 -126.884 68.6234C-127.865 68.7006 -128.602 68.7754 -129.093 68.8307C-129.268 68.8504 -129.411 68.8675 -129.523 68.8815C-129.569 68.8872 -129.61 68.8923 -129.645 68.8969C-129.706 68.9048 -129.751 68.9109 -129.781 68.915L-129.814 68.9197L-129.822 68.9208ZM-136.658 77.4972C-136.586 77.992 -136.585 77.9919 -136.584 77.9917L-136.576 77.9906L-136.543 77.986C-136.513 77.9819 -136.467 77.9757 -136.406 77.9678C-136.284 77.9521 -136.1 77.9293 -135.855 77.9017C-135.364 77.8464 -134.626 77.7716 -133.646 77.6944C-131.686 77.54 -128.756 77.376 -124.886 77.3392C-117.147 77.2656 -105.651 77.7007 -90.6429 79.7385C-60.6281 83.814 -16.565 94.301 39.576 119.956C151.858 171.266 312.466 283.254 505.62 525.99C698.848 768.819 859.574 880.922 972.031 932.312C1028.26 958.007 1072.42 968.522 1102.53 972.611C1117.59 974.655 1129.13 975.093 1136.92 975.019C1140.81 974.982 1143.76 974.817 1145.75 974.661C1146.74 974.583 1147.49 974.507 1147.99 974.45C1148.24 974.422 1148.43 974.398 1148.56 974.382C1148.62 974.374 1148.67 974.367 1148.7 974.363L1148.74 974.358L1148.75 974.356C1148.75 974.356 1148.75 974.356 1148.74 974.311C1148.74 974.28 1148.73 974.229 1148.72 974.143L1148.68 973.861C1148.64 973.578 1148.62 973.457 1148.61 973.405C1148.61 973.366 1148.61 973.366 1148.61 973.366L1148.6 973.367L1148.57 973.372L1148.49 973.382L1148.43 973.39L1148.3 973.406C1148.19 973.42 1148.05 973.437 1147.88 973.456C1147.67 973.48 1147.42 973.506 1147.13 973.535C1146.73 973.575 1146.24 973.619 1145.67 973.664C1143.71 973.818 1140.78 973.982 1136.91 974.019C1129.17 974.092 1117.67 973.657 1102.67 971.62C1072.65 967.544 1028.59 957.057 972.447 931.402C860.165 880.092 699.556 768.104 506.403 525.368C313.175 282.539 152.449 170.436 39.9917 119.046C-16.237 93.3515 -60.3946 82.8365 -90.5083 78.7475C-105.565 76.7031 -117.109 76.2652 -124.896 76.3393C-128.788 76.3763 -131.742 76.5413 -133.724 76.6975C-134.716 76.7755 -135.465 76.8514 -135.967 76.9079C-136.218 76.9362 -136.407 76.9596 -136.535 76.9761C-136.598 76.9843 -136.646 76.9908 -136.679 76.9953L-136.716 77.0005L-136.726 77.0019C-136.728 77.0022 -136.73 77.0024 -136.658 77.4972ZM-143.345 87.0626C-143.347 87.0628 -143.347 87.0629 -143.419 86.5681C-143.491 86.0734 -143.49 86.0732 -143.488 86.0728L-143.478 86.0714L-143.441 86.0662L-143.382 86.0583L-143.296 86.047C-143.169 86.0306 -142.979 86.0071 -142.728 85.9789C-142.226 85.9223 -141.477 85.8465 -140.486 85.7684C-138.503 85.6123 -135.55 85.4472 -131.657 85.4102C-123.871 85.3362 -112.326 85.774 -97.2698 87.8185C-67.1562 91.9075 -22.9985 102.422 33.2301 128.117C145.687 179.507 306.414 291.61 499.641 534.439C692.795 777.175 853.403 889.163 965.685 940.473C1021.83 966.128 1065.89 976.615 1095.9 980.69C1110.91 982.728 1122.41 983.163 1130.15 983.09C1134.02 983.053 1136.95 982.889 1138.91 982.735C1139.89 982.657 1140.62 982.583 1141.12 982.527C1141.19 982.519 1141.26 982.511 1141.32 982.504C1141.4 982.494 1141.48 982.485 1141.54 982.477L1141.67 982.461C1141.73 982.453 1141.77 982.447 1141.8 982.443L1141.84 982.438L1141.84 982.437C1141.85 982.437 1141.85 982.437 1141.85 982.473L1141.86 982.56L1141.88 982.649L1141.92 982.932C1141.95 983.177 1141.97 983.301 1141.98 983.363C1141.99 983.427 1141.99 983.427 1141.99 983.427L1141.98 983.429L1141.94 983.434C1141.91 983.438 1141.86 983.445 1141.8 983.453C1141.67 983.469 1141.48 983.493 1141.23 983.521C1140.73 983.578 1139.98 983.653 1138.99 983.732C1137 983.888 1134.05 984.053 1130.16 984.09C1122.37 984.164 1110.83 983.726 1095.77 981.681C1065.66 977.592 1021.5 967.078 965.27 941.383C852.813 889.993 692.086 777.89 498.859 535.061C305.705 292.325 145.097 180.337 32.8145 129.027C-23.3265 103.372 -67.3897 92.8849 -97.4044 88.8094C-112.412 86.7716 -123.909 86.3366 -131.648 86.4102C-135.517 86.447 -138.447 86.6109 -140.407 86.7653C-141.388 86.8425 -142.125 86.9173 -142.616 86.9726C-142.862 87.0002 -143.046 87.023 -143.168 87.0388L-143.221 87.0457L-143.304 87.0569L-143.337 87.0615L-143.345 87.0626ZM-150.181 95.6391C-150.109 96.1338 -150.108 96.1338 -150.107 96.1335L-150.099 96.1324L-150.066 96.1278L-149.999 96.1188L-149.929 96.1097C-149.852 96.0997 -149.749 96.0868 -149.621 96.0716C-149.548 96.063 -149.467 96.0536 -149.378 96.0435C-148.887 95.9882 -148.149 95.9134 -147.169 95.8362C-145.209 95.6819 -142.279 95.5179 -138.409 95.4811C-130.67 95.4075 -119.174 95.8425 -104.166 97.8803C-74.1512 101.956 -30.0881 112.443 26.0529 138.098C138.335 189.408 298.943 301.396 492.097 544.132C685.325 786.961 846.051 899.064 958.508 950.453C1014.74 976.148 1058.89 986.663 1089.01 990.752C1104.06 992.797 1115.61 993.235 1123.4 993.161C1127.29 993.124 1130.24 992.959 1132.22 992.803C1133.22 992.724 1133.96 992.648 1134.47 992.592C1134.57 992.58 1134.67 992.569 1134.75 992.559C1134.87 992.545 1134.96 992.533 1135.03 992.524C1135.1 992.516 1135.15 992.509 1135.18 992.505L1135.22 992.499L1135.23 992.498C1135.23 992.498 1135.23 992.498 1135.23 992.497C1135.23 992.497 1135.23 992.495 1135.23 992.493L1135.23 992.486L1135.22 992.453C1135.22 992.417 1135.21 992.354 1135.19 992.239L1135.16 992.003C1135.11 991.698 1135.1 991.581 1135.09 991.536C1135.08 991.508 1135.08 991.508 1135.08 991.508L1135.08 991.509L1135.04 991.514L1134.98 991.522L1134.91 991.532L1134.78 991.548C1134.67 991.562 1134.53 991.579 1134.35 991.598C1134.14 991.623 1133.87 991.651 1133.56 991.682C1133.48 991.689 1133.4 991.697 1133.32 991.704C1133.2 991.716 1133.07 991.728 1132.94 991.739C1132.69 991.761 1132.43 991.783 1132.15 991.805C1130.19 991.96 1127.26 992.124 1123.39 992.161C1115.65 992.234 1104.15 991.799 1089.14 989.761C1059.13 985.686 1015.06 975.199 958.924 949.544C846.642 898.234 686.033 786.246 492.88 543.51C299.652 300.681 138.926 188.578 26.4686 137.188C-29.76 111.493 -73.9177 100.978 -104.031 96.8894C-119.088 94.845 -130.633 94.4071 -138.419 94.4811C-142.312 94.5182 -145.265 94.6832 -147.248 94.8393C-148.239 94.9174 -148.988 94.9932 -149.49 95.0498C-149.741 95.0781 -149.93 95.1015 -150.058 95.1179C-150.121 95.1262 -150.17 95.1327 -150.202 95.1372L-150.239 95.1423L-150.249 95.1437C-150.252 95.1441 -150.253 95.1443 -150.181 95.6391ZM-156.868 105.204C-156.87 105.205 -156.87 105.205 -156.942 104.71C-157.015 104.215 -157.013 104.215 -157.011 104.215L-157.001 104.213L-156.964 104.208C-156.931 104.204 -156.883 104.197 -156.819 104.189C-156.692 104.172 -156.502 104.149 -156.251 104.121C-155.749 104.064 -155 103.988 -154.009 103.91C-152.026 103.754 -149.073 103.589 -145.18 103.552C-137.394 103.478 -125.849 103.916 -110.793 105.96C-80.6792 110.049 -36.5215 120.564 19.7071 146.259C132.164 197.649 292.891 309.752 486.118 552.58C679.272 795.317 839.88 907.305 952.162 958.615C1008.3 984.27 1052.37 994.757 1082.38 998.832C1097.39 1000.87 1108.89 1001.31 1116.62 1001.23C1120.49 1001.19 1123.42 1001.03 1125.38 1000.88C1126.36 1000.8 1127.1 1000.72 1127.59 1000.67C1127.67 1000.66 1127.75 1000.65 1127.82 1000.64C1127.89 1000.63 1127.96 1000.63 1128.02 1000.62L1128.14 1000.6L1128.23 1000.59L1128.28 1000.58L1128.31 1000.58L1128.32 1000.58C1128.32 1000.58 1128.32 1000.58 1128.32 1000.58C1128.32 1000.59 1128.33 1000.59 1128.33 1000.61C1128.33 1000.65 1128.35 1000.77 1128.4 1001.07C1128.44 1001.4 1128.46 1001.51 1128.46 1001.55C1128.47 1001.57 1128.46 1001.57 1128.46 1001.57L1128.45 1001.57L1128.42 1001.58C1128.38 1001.58 1128.34 1001.59 1128.27 1001.59C1128.15 1001.61 1127.96 1001.63 1127.7 1001.66C1127.2 1001.72 1126.45 1001.8 1125.46 1001.87C1123.48 1002.03 1120.53 1002.19 1116.63 1002.23C1108.85 1002.31 1097.3 1001.87 1082.25 999.823C1052.13 995.734 1007.98 985.219 951.747 959.524C839.289 908.135 678.563 796.032 485.336 553.203C292.182 310.467 131.574 198.479 19.2914 147.169C-36.8496 121.514 -80.9127 111.027 -110.927 106.951C-125.935 104.913 -137.432 104.478 -145.171 104.552C-149.04 104.589 -151.97 104.753 -153.931 104.907C-154.911 104.984 -155.648 105.059 -156.139 105.114C-156.385 105.142 -156.569 105.165 -156.691 105.181L-156.746 105.188L-156.827 105.199L-156.86 105.203L-156.868 105.204ZM-163.704 113.781C-163.632 114.276 -163.631 114.276 -163.63 114.275L-163.622 114.274L-163.589 114.27C-163.559 114.266 -163.514 114.259 -163.453 114.252C-163.416 114.247 -163.374 114.241 -163.326 114.236C-163.269 114.228 -163.204 114.221 -163.132 114.212C-163.062 114.204 -162.985 114.195 -162.901 114.185C-162.41 114.13 -161.672 114.055 -160.692 113.978C-158.732 113.824 -155.802 113.66 -151.932 113.623C-144.193 113.549 -132.697 113.984 -117.689 116.022C-87.6742 120.098 -43.6111 130.585 12.5299 156.24C124.812 207.549 285.42 319.538 478.574 562.274C671.801 805.103 832.528 917.206 944.985 968.595C1001.21 994.29 1045.37 1004.81 1075.48 1008.89C1090.54 1010.94 1102.09 1011.38 1109.87 1011.3C1113.77 1011.27 1116.72 1011.1 1118.7 1010.94C1119.69 1010.87 1120.44 1010.79 1120.94 1010.73C1121.19 1010.71 1121.38 1010.68 1121.51 1010.67C1121.58 1010.66 1121.62 1010.65 1121.66 1010.65L1121.69 1010.64L1121.7 1010.64C1121.71 1010.64 1121.71 1010.64 1121.63 1010.14C1121.59 1009.84 1121.57 1009.72 1121.57 1009.68C1121.56 1009.67 1121.56 1009.66 1121.56 1009.66C1121.56 1009.65 1121.56 1009.65 1121.56 1009.65L1121.55 1009.65L1121.52 1009.66L1121.47 1009.66L1121.38 1009.67L1121.26 1009.69C1121.15 1009.7 1121 1009.72 1120.83 1009.74C1120.7 1009.75 1120.56 1009.77 1120.39 1009.79C1120.24 1009.8 1120.08 1009.82 1119.9 1009.84C1119.53 1009.87 1119.11 1009.91 1118.62 1009.95C1116.66 1010.1 1113.73 1010.27 1109.86 1010.3C1102.12 1010.38 1090.63 1009.94 1075.62 1007.9C1045.6 1003.83 1001.54 993.341 945.401 967.686C833.119 916.376 672.51 804.388 479.357 561.651C286.129 318.823 125.403 206.72 12.9456 155.33C-43.2831 129.635 -87.4407 119.12 -117.554 115.031C-132.611 112.987 -144.156 112.549 -151.942 112.623C-155.835 112.66 -158.788 112.825 -160.771 112.981C-161.762 113.059 -162.511 113.135 -163.013 113.192C-163.264 113.22 -163.453 113.243 -163.581 113.26C-163.644 113.268 -163.693 113.275 -163.725 113.279L-163.762 113.284L-163.772 113.286C-163.775 113.286 -163.776 113.286 -163.704 113.781ZM-170.391 123.346C-170.393 123.347 -170.393 123.347 -170.465 122.852C-170.538 122.357 -170.536 122.357 -170.534 122.357L-170.524 122.355L-170.487 122.35C-170.454 122.345 -170.406 122.339 -170.342 122.331C-170.215 122.314 -170.025 122.291 -169.774 122.263C-169.272 122.206 -168.523 122.13 -167.532 122.052C-165.549 121.896 -162.596 121.731 -158.703 121.694C-150.917 121.62 -139.372 122.058 -124.316 124.102C-94.2023 128.191 -50.0446 138.706 6.18403 164.401C118.641 215.791 279.368 327.894 472.595 570.722C665.749 813.459 826.357 925.447 938.639 976.757C994.78 1002.41 1038.84 1012.9 1068.86 1016.97C1083.87 1019.01 1095.36 1019.45 1103.1 1019.37C1106.97 1019.34 1109.9 1019.17 1111.86 1019.02C1112.84 1018.94 1113.58 1018.87 1114.07 1018.81C1114.24 1018.79 1114.38 1018.77 1114.5 1018.76L1114.62 1018.74C1114.68 1018.74 1114.73 1018.73 1114.76 1018.73L1114.79 1018.72L1114.8 1018.72C1114.8 1018.72 1114.8 1018.72 1114.8 1018.73C1114.8 1018.73 1114.8 1018.74 1114.8 1018.75C1114.81 1018.8 1114.83 1018.91 1114.87 1019.22C1114.91 1019.47 1114.93 1019.6 1114.94 1019.66C1114.94 1019.71 1114.94 1019.71 1114.94 1019.71L1114.93 1019.71L1114.89 1019.72C1114.86 1019.72 1114.81 1019.73 1114.75 1019.74L1114.64 1019.75L1114.52 1019.77L1114.41 1019.78L1114.35 1019.79L1114.27 1019.79L1114.18 1019.8C1113.68 1019.86 1112.93 1019.94 1111.94 1020.02C1109.96 1020.17 1107 1020.34 1103.11 1020.37C1095.32 1020.45 1083.78 1020.01 1068.72 1017.97C1038.61 1013.88 994.452 1003.36 938.224 977.666C825.766 926.277 665.04 814.174 471.813 571.345C278.659 328.609 118.05 216.62 5.76836 165.311C-50.3726 139.656 -94.4358 129.169 -124.451 125.093C-139.458 123.055 -150.955 122.62 -158.694 122.694C-162.563 122.731 -165.493 122.895 -167.454 123.049C-168.434 123.126 -169.171 123.201 -169.662 123.256C-169.908 123.284 -170.092 123.307 -170.214 123.322C-170.275 123.33 -170.321 123.337 -170.35 123.341L-170.384 123.345L-170.391 123.346ZM-177.227 131.923C-177.155 132.418 -177.154 132.417 -177.153 132.417L-177.145 132.416L-177.112 132.412L-177.047 132.403L-176.976 132.393C-176.854 132.378 -176.67 132.355 -176.424 132.327C-175.933 132.272 -175.195 132.197 -174.215 132.12C-172.255 131.966 -169.325 131.802 -165.455 131.765C-157.716 131.691 -146.22 132.126 -131.212 134.164C-101.197 138.24 -57.1342 148.727 -0.993172 174.381C111.289 225.691 271.897 337.679 465.051 580.416C658.278 823.245 819.005 935.347 931.462 986.737C987.691 1012.43 1031.85 1022.95 1061.96 1027.04C1077.02 1029.08 1088.56 1029.52 1096.35 1029.44C1100.24 1029.41 1103.2 1029.24 1105.18 1029.09C1105.84 1029.03 1106.39 1028.98 1106.84 1028.94C1107.06 1028.92 1107.25 1028.89 1107.42 1028.88L1107.54 1028.86L1107.64 1028.85C1107.7 1028.84 1107.75 1028.84 1107.8 1028.83C1107.87 1028.82 1107.94 1028.81 1107.99 1028.81C1108.05 1028.8 1108.1 1028.79 1108.13 1028.79L1108.17 1028.78L1108.18 1028.78C1108.18 1028.78 1108.18 1028.78 1108.18 1028.75L1108.17 1028.72L1108.17 1028.67C1108.16 1028.59 1108.14 1028.48 1108.11 1028.29C1108.04 1027.79 1108.04 1027.79 1108.04 1027.79L1108.03 1027.79L1108 1027.8L1107.91 1027.81L1107.86 1027.82L1107.73 1027.83C1107.62 1027.85 1107.48 1027.86 1107.31 1027.88C1106.82 1027.94 1106.08 1028.01 1105.1 1028.09C1103.14 1028.24 1100.21 1028.41 1096.34 1028.44C1088.6 1028.52 1077.1 1028.08 1062.1 1026.05C1032.08 1021.97 988.019 1011.48 931.878 985.828C819.595 934.518 658.987 822.53 465.833 579.793C272.606 336.964 111.88 224.862 -0.577499 173.472C-56.8061 147.777 -100.964 137.262 -131.077 133.173C-146.134 131.129 -157.679 130.691 -165.465 130.765C-169.358 130.802 -172.311 130.967 -174.294 131.123C-175.285 131.201 -176.034 131.277 -176.536 131.333C-176.787 131.362 -176.976 131.385 -177.104 131.402L-177.205 131.415L-177.248 131.421L-177.285 131.426L-177.295 131.427C-177.298 131.428 -177.299 131.428 -177.227 131.923ZM-183.914 141.488C-183.916 141.488 -183.916 141.488 -183.988 140.994C-184.061 140.499 -184.059 140.499 -184.057 140.498L-184.047 140.497L-184.01 140.492L-183.952 140.484L-183.865 140.473C-183.738 140.456 -183.549 140.433 -183.297 140.404C-182.795 140.348 -182.047 140.272 -181.055 140.194C-179.072 140.038 -176.119 139.873 -172.226 139.836C-164.44 139.762 -152.896 140.2 -137.839 142.244C-107.725 146.333 -63.5677 156.848 -7.33903 182.543C105.118 233.933 265.845 346.035 459.072 588.864C652.226 831.601 812.834 943.589 925.116 994.899C981.257 1020.55 1025.32 1031.04 1055.33 1035.12C1070.34 1037.15 1081.84 1037.59 1089.58 1037.52C1093.45 1037.48 1096.38 1037.31 1098.34 1037.16C1099.32 1037.08 1100.06 1037.01 1100.55 1036.95C1100.72 1036.93 1100.86 1036.92 1100.97 1036.9L1101.1 1036.89L1101.17 1036.88L1101.23 1036.87L1101.27 1036.86L1101.28 1036.86C1101.28 1036.86 1101.28 1036.86 1101.28 1036.87C1101.28 1036.87 1101.28 1036.88 1101.28 1036.89C1101.29 1036.93 1101.3 1037.05 1101.35 1037.36C1101.39 1037.65 1101.41 1037.77 1101.42 1037.82C1101.42 1037.85 1101.42 1037.85 1101.42 1037.85L1101.41 1037.85L1101.37 1037.86L1101.32 1037.87L1101.23 1037.88C1101.1 1037.89 1100.91 1037.92 1100.66 1037.95C1100.58 1037.96 1100.48 1037.97 1100.39 1037.98C1099.9 1038.03 1099.24 1038.09 1098.42 1038.16C1096.43 1038.31 1093.48 1038.48 1089.59 1038.52C1081.8 1038.59 1070.26 1038.15 1055.2 1036.11C1025.09 1032.02 980.929 1021.5 924.7 995.808C812.243 944.418 651.517 832.316 458.289 589.487C265.136 346.75 104.527 234.762 -7.7547 183.452C-63.8957 157.798 -107.959 147.311 -137.974 143.235C-152.981 141.197 -164.478 140.762 -172.217 140.836C-176.086 140.873 -179.016 141.037 -180.977 141.191C-181.957 141.268 -182.694 141.343 -183.186 141.398C-183.346 141.416 -183.481 141.432 -183.589 141.446C-183.646 141.453 -183.695 141.459 -183.737 141.464L-183.822 141.475L-183.873 141.482L-183.907 141.487L-183.914 141.488ZM-190.75 150.065C-190.678 150.559 -190.677 150.559 -190.676 150.559L-190.668 150.558L-190.635 150.553L-190.573 150.545L-190.499 150.535C-190.377 150.52 -190.193 150.497 -189.947 150.469C-189.456 150.414 -188.718 150.339 -187.738 150.262C-185.778 150.107 -182.848 149.943 -178.978 149.907C-171.239 149.833 -159.743 150.268 -144.735 152.306C-114.72 156.381 -70.6572 166.868 -14.5162 192.523C97.7659 243.833 258.374 355.821 451.528 598.558C644.755 841.387 805.482 953.489 917.939 1004.88C974.168 1030.57 1018.33 1041.09 1048.44 1045.18C1063.5 1047.22 1075.04 1047.66 1082.83 1047.59C1086.72 1047.55 1089.67 1047.38 1091.65 1047.23C1092.12 1047.19 1092.53 1047.16 1092.89 1047.12C1093.3 1047.08 1093.63 1047.05 1093.9 1047.02C1094.15 1046.99 1094.34 1046.97 1094.47 1046.95C1094.53 1046.94 1094.58 1046.93 1094.61 1046.93L1094.65 1046.93L1094.66 1046.92C1094.66 1046.92 1094.66 1046.92 1094.65 1046.88C1094.65 1046.83 1094.63 1046.71 1094.59 1046.43C1094.54 1046.12 1094.53 1046 1094.52 1045.96L1094.52 1045.94L1094.52 1045.94C1094.51 1045.93 1094.51 1045.93 1094.51 1045.93L1094.51 1045.93L1094.47 1045.94L1094.41 1045.95L1094.34 1045.96L1094.21 1045.97C1094.1 1045.99 1093.96 1046 1093.79 1046.02C1093.29 1046.08 1092.56 1046.15 1091.58 1046.23C1089.62 1046.39 1086.69 1046.55 1082.82 1046.59C1075.08 1046.66 1063.58 1046.22 1048.57 1044.19C1018.56 1040.11 974.496 1029.62 918.355 1003.97C806.072 952.66 645.464 840.672 452.31 597.935C259.083 355.106 98.3566 243.004 -14.1006 191.614C-70.3292 165.919 -114.487 155.404 -144.601 151.315C-159.657 149.271 -171.202 148.833 -178.988 148.907C-182.881 148.944 -185.834 149.109 -187.817 149.265C-188.808 149.343 -189.557 149.419 -190.059 149.475C-190.31 149.504 -190.5 149.527 -190.627 149.544C-190.691 149.552 -190.739 149.558 -190.771 149.563L-190.808 149.568L-190.818 149.569C-190.821 149.57 -190.822 149.57 -190.75 150.065ZM-197.437 159.63C-197.439 159.63 -197.439 159.63 -197.512 159.136C-197.584 158.641 -197.582 158.641 -197.58 158.64L-197.57 158.639L-197.533 158.634C-197.5 158.629 -197.452 158.623 -197.388 158.614C-197.346 158.609 -197.297 158.603 -197.241 158.596L-197.109 158.58C-197.024 158.57 -196.928 158.558 -196.82 158.546C-196.318 158.49 -195.57 158.414 -194.578 158.336C-192.596 158.18 -189.642 158.015 -185.749 157.978C-177.963 157.904 -166.419 158.341 -151.362 160.386C-121.248 164.475 -77.0907 174.99 -20.8621 200.685C91.595 252.075 252.321 364.177 445.549 607.006C638.703 849.742 799.311 961.731 911.593 1013.04C967.734 1038.7 1011.8 1049.18 1041.81 1053.26C1056.82 1055.3 1068.32 1055.73 1076.06 1055.66C1079.92 1055.62 1082.85 1055.46 1084.82 1055.3C1085.8 1055.22 1086.53 1055.15 1087.02 1055.09C1087.2 1055.08 1087.34 1055.06 1087.45 1055.04L1087.58 1055.03C1087.64 1055.02 1087.68 1055.01 1087.71 1055.01L1087.74 1055.01L1087.75 1055C1087.75 1055 1087.75 1055 1087.75 1055.01C1087.75 1055.01 1087.76 1055.02 1087.76 1055.03L1087.77 1055.1L1087.8 1055.31L1087.83 1055.5C1087.9 1055.99 1087.9 1055.99 1087.89 1055.99L1087.89 1056L1087.85 1056C1087.82 1056.01 1087.77 1056.01 1087.7 1056.02C1087.58 1056.04 1087.39 1056.06 1087.14 1056.09L1087.02 1056.1C1086.95 1056.11 1086.87 1056.12 1086.79 1056.13C1086.64 1056.14 1086.46 1056.16 1086.26 1056.18C1085.88 1056.22 1085.42 1056.26 1084.89 1056.3C1082.91 1056.46 1079.96 1056.62 1076.06 1056.66C1068.28 1056.73 1056.73 1056.29 1041.68 1054.25C1011.56 1050.16 967.406 1039.64 911.177 1013.95C798.72 962.56 637.994 850.458 444.766 607.629C251.613 364.892 91.0044 252.904 -21.2778 201.594C-77.4188 175.939 -121.482 165.452 -151.497 161.377C-166.504 159.339 -178.001 158.904 -185.74 158.978C-189.609 159.014 -192.54 159.178 -194.5 159.333C-195.48 159.41 -196.217 159.485 -196.709 159.54C-196.954 159.568 -197.138 159.59 -197.26 159.606C-197.321 159.614 -197.367 159.62 -197.396 159.624L-197.43 159.629L-197.437 159.63ZM-204.273 168.206C-204.201 168.701 -204.2 168.701 -204.199 168.701L-204.191 168.7L-204.158 168.695L-204.094 168.687L-204.022 168.677C-203.9 168.661 -203.716 168.639 -203.47 168.611C-202.979 168.556 -202.241 168.481 -201.261 168.404C-199.301 168.249 -196.371 168.085 -192.501 168.049C-184.762 167.975 -173.266 168.41 -158.258 170.448C-128.243 174.523 -84.1803 185.01 -28.0393 210.665C84.2428 261.975 244.851 373.963 438.005 616.7C631.232 859.528 791.959 971.631 904.416 1023.02C960.644 1048.72 1004.8 1059.23 1034.92 1063.32C1049.97 1065.36 1061.52 1065.8 1069.3 1065.73C1073.2 1065.69 1076.15 1065.53 1078.13 1065.37C1078.53 1065.34 1078.89 1065.31 1079.21 1065.28C1079.69 1065.23 1080.07 1065.19 1080.37 1065.16C1080.63 1065.13 1080.81 1065.11 1080.94 1065.09C1081.01 1065.08 1081.05 1065.08 1081.09 1065.07L1081.12 1065.07L1081.13 1065.07C1081.14 1065.07 1081.14 1065.06 1081.07 1064.57C1081.02 1064.28 1081.01 1064.16 1081 1064.11C1080.99 1064.08 1080.99 1064.08 1080.99 1064.08L1080.98 1064.08L1080.95 1064.08C1080.92 1064.09 1080.87 1064.09 1080.81 1064.1L1080.69 1064.12L1080.48 1064.14C1080.41 1064.15 1080.34 1064.16 1080.26 1064.17C1079.77 1064.22 1079.03 1064.3 1078.05 1064.37C1076.09 1064.53 1073.16 1064.69 1069.29 1064.73C1061.55 1064.8 1050.06 1064.37 1035.05 1062.33C1005.04 1058.25 960.973 1047.77 904.831 1022.11C792.549 970.802 631.941 858.813 438.787 616.077C245.56 373.248 84.8335 261.145 -27.6236 209.756C-83.8522 184.061 -128.01 173.546 -158.124 169.457C-173.18 167.412 -184.725 166.975 -192.511 167.049C-196.404 167.086 -199.357 167.251 -201.34 167.407C-202.331 167.485 -203.08 167.561 -203.582 167.617L-203.685 167.629L-203.776 167.639C-203.846 167.648 -203.91 167.655 -203.968 167.662L-204.087 167.677L-204.15 167.685C-204.214 167.694 -204.262 167.7 -204.294 167.705L-204.331 167.71L-204.341 167.711C-204.344 167.712 -204.345 167.712 -204.273 168.206ZM-210.96 177.772C-210.962 177.772 -210.962 177.772 -211.035 177.277C-211.107 176.783 -211.105 176.782 -211.103 176.782L-211.093 176.781L-211.056 176.776C-211.023 176.771 -210.975 176.765 -210.911 176.756C-210.784 176.74 -210.595 176.716 -210.344 176.688C-209.841 176.632 -209.093 176.556 -208.101 176.478C-206.119 176.322 -203.165 176.157 -199.272 176.12C-191.486 176.045 -179.942 176.483 -164.885 178.528C-134.771 182.617 -90.6138 193.132 -34.3851 218.827C78.072 270.216 238.798 382.319 432.026 625.148C625.18 867.884 785.788 979.873 898.07 1031.18C954.211 1056.84 998.274 1067.32 1028.29 1071.4C1043.3 1073.44 1054.79 1073.87 1062.53 1073.8C1066.4 1073.76 1069.33 1073.6 1071.29 1073.44C1072.27 1073.37 1073.01 1073.29 1073.5 1073.24L1073.63 1073.22L1073.7 1073.21L1073.84 1073.2L1073.93 1073.19L1074.05 1073.17C1074.11 1073.16 1074.16 1073.16 1074.19 1073.15L1074.22 1073.15L1074.23 1073.15C1074.23 1073.15 1074.23 1073.15 1074.24 1073.18C1074.24 1073.23 1074.26 1073.36 1074.3 1073.64C1074.34 1073.92 1074.36 1074.04 1074.37 1074.09C1074.37 1074.14 1074.37 1074.14 1074.37 1074.14L1074.36 1074.14L1074.33 1074.14C1074.29 1074.15 1074.24 1074.15 1074.18 1074.16C1074.05 1074.18 1073.86 1074.2 1073.61 1074.23C1073.45 1074.25 1073.25 1074.27 1073.03 1074.29C1072.59 1074.34 1072.03 1074.39 1071.37 1074.44C1069.39 1074.6 1066.43 1074.76 1062.54 1074.8C1054.76 1074.87 1043.21 1074.44 1028.15 1072.39C998.041 1068.3 953.883 1057.79 897.654 1032.09C785.197 980.702 624.471 868.599 431.243 625.771C238.089 383.034 77.4813 271.046 -34.8008 219.736C-90.9418 194.081 -135.005 183.594 -165.02 179.519C-180.027 177.481 -191.524 177.046 -199.263 177.119C-203.132 177.156 -206.063 177.32 -208.023 177.475C-209.003 177.552 -209.74 177.627 -210.232 177.682C-210.477 177.71 -210.661 177.732 -210.783 177.748C-210.844 177.756 -210.89 177.762 -210.92 177.766L-210.953 177.771L-210.96 177.772ZM-217.796 186.348C-217.724 186.843 -217.723 186.843 -217.722 186.843L-217.714 186.842L-217.681 186.837C-217.651 186.833 -217.606 186.827 -217.545 186.819C-217.423 186.803 -217.239 186.78 -216.993 186.753C-216.502 186.697 -215.764 186.623 -214.784 186.546C-212.824 186.391 -209.894 186.227 -206.024 186.19C-198.285 186.117 -186.789 186.552 -171.781 188.59C-141.766 192.665 -97.7033 203.152 -41.5623 228.807C70.7198 280.117 231.328 392.105 424.482 634.841C617.709 877.67 778.436 989.773 890.893 1041.16C947.121 1066.86 991.279 1077.37 1021.39 1081.46C1036.45 1083.51 1047.99 1083.94 1055.78 1083.87C1059.67 1083.83 1062.63 1083.67 1064.61 1083.51C1065.6 1083.43 1066.35 1083.36 1066.85 1083.3L1067 1083.28L1067.09 1083.27L1067.22 1083.26C1067.3 1083.25 1067.36 1083.24 1067.42 1083.23L1067.51 1083.22L1067.56 1083.21L1067.6 1083.21L1067.61 1083.21C1067.61 1083.21 1067.61 1083.21 1067.54 1082.71L1067.49 1082.37L1067.48 1082.26C1067.47 1082.22 1067.47 1082.22 1067.47 1082.22L1067.46 1082.22L1067.43 1082.22C1067.4 1082.23 1067.35 1082.23 1067.29 1082.24L1067.16 1082.26C1067.05 1082.27 1066.91 1082.29 1066.74 1082.31C1066.25 1082.36 1065.51 1082.44 1064.53 1082.51C1062.57 1082.67 1059.64 1082.83 1055.77 1082.87C1048.03 1082.94 1036.53 1082.51 1021.53 1080.47C991.513 1076.4 947.449 1065.91 891.308 1040.25C779.026 988.943 618.418 876.955 425.264 634.219C232.037 391.39 71.3105 279.287 -41.1467 227.898C-97.3753 202.203 -141.533 191.688 -171.647 187.599C-186.703 185.554 -198.248 185.116 -206.034 185.19C-209.927 185.227 -212.88 185.392 -214.863 185.549C-215.854 185.627 -216.603 185.703 -217.105 185.759C-217.356 185.787 -217.546 185.811 -217.673 185.827L-217.731 185.835L-217.817 185.846L-217.855 185.852L-217.864 185.853C-217.867 185.853 -217.868 185.854 -217.796 186.348ZM-224.484 195.914C-224.485 195.914 -224.485 195.914 -224.558 195.419C-224.63 194.925 -224.628 194.924 -224.626 194.924L-224.616 194.923L-224.579 194.917L-224.511 194.908L-224.435 194.898C-224.307 194.882 -224.118 194.858 -223.867 194.83C-223.364 194.773 -222.616 194.698 -221.624 194.62C-219.642 194.463 -216.688 194.298 -212.795 194.261C-205.009 194.187 -193.465 194.625 -178.408 196.67C-148.294 200.759 -104.137 211.274 -47.9082 236.968C64.5489 288.358 225.275 400.461 418.503 643.29C611.657 886.026 772.265 998.014 884.547 1049.32C940.688 1074.98 984.751 1085.47 1014.77 1089.54C1029.77 1091.58 1041.27 1092.01 1049.01 1091.94C1052.88 1091.9 1055.81 1091.74 1057.77 1091.59C1058.75 1091.51 1059.49 1091.43 1059.98 1091.38C1060.1 1091.36 1060.21 1091.35 1060.3 1091.34L1060.4 1091.33L1060.53 1091.31C1060.59 1091.3 1060.64 1091.3 1060.67 1091.29L1060.7 1091.29L1060.71 1091.29C1060.71 1091.29 1060.71 1091.29 1060.71 1091.34C1060.72 1091.39 1060.74 1091.51 1060.78 1091.78C1060.8 1091.94 1060.82 1092.05 1060.83 1092.12L1060.84 1092.23C1060.85 1092.28 1060.85 1092.28 1060.85 1092.28L1060.84 1092.28L1060.8 1092.28L1060.72 1092.3L1060.66 1092.3C1060.53 1092.32 1060.34 1092.34 1060.09 1092.37C1059.59 1092.43 1058.84 1092.5 1057.85 1092.58C1055.86 1092.74 1052.91 1092.9 1049.02 1092.94C1041.23 1093.01 1029.69 1092.58 1014.63 1090.53C984.518 1086.44 940.36 1075.93 884.131 1050.23C771.674 998.844 610.948 886.741 417.72 643.912C224.566 401.176 63.9583 289.188 -48.3238 237.878C-104.465 212.223 -148.528 201.736 -178.543 197.661C-193.55 195.623 -205.047 195.188 -212.786 195.261C-216.655 195.298 -219.586 195.462 -221.546 195.616C-222.526 195.694 -223.263 195.768 -223.755 195.824C-224 195.851 -224.184 195.874 -224.306 195.89C-224.367 195.898 -224.413 195.904 -224.443 195.908L-224.476 195.913L-224.484 195.914ZM-231.319 204.49C-231.247 204.985 -231.247 204.985 -231.245 204.985L-231.237 204.984L-231.204 204.979C-231.174 204.975 -231.129 204.969 -231.068 204.961C-230.946 204.945 -230.762 204.922 -230.516 204.895C-230.025 204.839 -229.287 204.765 -228.307 204.687C-226.347 204.533 -223.417 204.369 -219.547 204.332C-211.808 204.259 -200.312 204.694 -185.304 206.731C-155.29 210.807 -111.226 221.294 -55.0854 246.949C57.1967 298.259 217.805 410.247 410.959 652.983C604.186 895.812 764.913 1007.91 877.37 1059.3C933.598 1085 977.756 1095.51 1007.87 1099.6C1022.93 1101.65 1034.47 1102.09 1042.26 1102.01C1046.15 1101.97 1049.1 1101.81 1051.09 1101.65C1052.08 1101.58 1052.83 1101.5 1053.33 1101.44C1053.4 1101.43 1053.48 1101.43 1053.54 1101.42L1053.66 1101.4C1053.75 1101.39 1053.83 1101.38 1053.9 1101.37C1053.96 1101.37 1054.01 1101.36 1054.04 1101.36L1054.08 1101.35L1054.09 1101.35C1054.09 1101.35 1054.09 1101.35 1054.08 1101.31L1054.07 1101.23C1054.06 1101.16 1054.05 1101.04 1054.02 1100.85C1053.95 1100.36 1053.95 1100.36 1053.95 1100.36L1053.94 1100.36L1053.9 1100.37C1053.87 1100.37 1053.83 1100.38 1053.77 1100.38L1053.64 1100.4C1053.53 1100.41 1053.39 1100.43 1053.22 1100.45C1053 1100.47 1052.73 1100.5 1052.41 1100.53C1052.2 1100.55 1051.98 1100.57 1051.74 1100.6C1051.51 1100.62 1051.27 1100.64 1051.01 1100.66C1049.05 1100.81 1046.12 1100.97 1042.25 1101.01C1034.51 1101.09 1023.01 1100.65 1008 1098.61C977.989 1094.54 933.926 1084.05 877.785 1058.4C765.503 1007.09 604.895 895.097 411.741 652.361C218.514 409.532 57.7874 297.429 -54.6697 246.039C-110.898 220.344 -155.056 209.83 -185.17 205.741C-200.226 203.696 -211.771 203.258 -219.557 203.332C-223.45 203.369 -226.403 203.534 -228.386 203.69C-229.377 203.769 -230.126 203.844 -230.628 203.901C-230.879 203.929 -231.069 203.953 -231.196 203.969L-231.292 203.982L-231.34 203.988L-231.378 203.993L-231.387 203.995C-231.39 203.995 -231.391 203.995 -231.319 204.49ZM-238.007 214.056C-238.008 214.056 -238.009 214.056 -238.081 213.561C-238.153 213.066 -238.151 213.066 -238.149 213.066L-238.139 213.064L-238.102 213.059L-238.014 213.047L-237.958 213.04C-237.83 213.024 -237.641 213 -237.39 212.972C-236.887 212.915 -236.139 212.839 -235.147 212.761C-233.165 212.605 -230.211 212.44 -226.318 212.403C-218.532 212.329 -206.988 212.767 -191.931 214.811C-161.818 218.9 -117.66 229.415 -61.4313 255.11C51.0259 306.5 211.752 418.603 404.98 661.432C598.134 904.168 758.742 1016.16 871.024 1067.47C927.165 1093.12 971.228 1103.61 1001.24 1107.68C1016.25 1109.72 1027.75 1110.16 1035.49 1110.08C1039.36 1110.05 1042.29 1109.88 1044.25 1109.73C1044.46 1109.71 1044.65 1109.69 1044.84 1109.68C1044.97 1109.67 1045.1 1109.66 1045.21 1109.65C1045.73 1109.6 1046.14 1109.56 1046.45 1109.52C1046.63 1109.5 1046.77 1109.48 1046.88 1109.47L1047.01 1109.45C1047.07 1109.45 1047.11 1109.44 1047.14 1109.44L1047.18 1109.43L1047.18 1109.43C1047.18 1109.43 1047.19 1109.43 1047.26 1109.92C1047.3 1110.24 1047.32 1110.35 1047.32 1110.4C1047.33 1110.42 1047.33 1110.42 1047.33 1110.42L1047.32 1110.42L1047.28 1110.43C1047.25 1110.43 1047.2 1110.44 1047.13 1110.45L1046.96 1110.47C1046.85 1110.48 1046.72 1110.5 1046.57 1110.51C1046.27 1110.55 1045.89 1110.59 1045.42 1110.63C1045.26 1110.65 1045.09 1110.66 1044.91 1110.68C1044.73 1110.69 1044.53 1110.71 1044.32 1110.72C1042.34 1110.88 1039.39 1111.05 1035.5 1111.08C1027.71 1111.16 1016.16 1110.72 1001.11 1108.67C970.995 1104.59 926.837 1094.07 870.608 1068.38C758.151 1016.99 597.425 904.883 404.197 662.054C211.043 419.318 50.4352 307.33 -61.8469 256.02C-117.988 230.365 -162.051 219.878 -192.066 215.802C-207.073 213.765 -218.57 213.33 -226.309 213.403C-230.178 213.44 -233.109 213.604 -235.069 213.758C-236.049 213.835 -236.787 213.91 -237.278 213.966C-237.523 213.993 -237.707 214.016 -237.829 214.032L-237.925 214.044L-237.966 214.05L-237.999 214.055L-238.007 214.056ZM-244.842 222.632C-244.77 223.127 -244.77 223.127 -244.768 223.127L-244.76 223.125L-244.727 223.121C-244.697 223.117 -244.652 223.111 -244.591 223.103C-244.469 223.087 -244.285 223.064 -244.039 223.036C-243.548 222.981 -242.81 222.906 -241.83 222.829C-239.87 222.675 -236.94 222.511 -233.07 222.474C-225.331 222.4 -213.835 222.836 -198.827 224.873C-168.813 228.949 -124.749 239.436 -68.6084 265.091C43.6737 316.401 204.282 428.389 397.436 671.125C590.663 913.954 751.39 1026.06 863.847 1077.45C920.075 1103.14 964.233 1113.66 994.347 1117.75C1009.4 1119.79 1020.95 1120.23 1028.73 1120.15C1032.63 1120.12 1035.58 1119.95 1037.56 1119.8C1038.55 1119.72 1039.3 1119.64 1039.81 1119.59C1039.89 1119.58 1039.97 1119.57 1040.05 1119.56C1040.18 1119.54 1040.29 1119.53 1040.37 1119.52C1040.44 1119.51 1040.48 1119.5 1040.52 1119.5L1040.55 1119.49L1040.56 1119.49C1040.57 1119.49 1040.57 1119.49 1040.56 1119.47L1040.56 1119.43L1040.55 1119.38L1040.53 1119.22L1040.5 1119C1040.42 1118.5 1040.42 1118.5 1040.42 1118.5L1040.41 1118.5L1040.38 1118.51C1040.35 1118.51 1040.31 1118.52 1040.24 1118.53L1040.12 1118.54L1039.93 1118.56C1039.86 1118.57 1039.78 1118.58 1039.69 1118.59C1039.2 1118.65 1038.46 1118.72 1037.48 1118.8C1035.52 1118.95 1032.59 1119.12 1028.72 1119.15C1020.99 1119.23 1009.49 1118.79 994.481 1116.75C964.466 1112.68 920.403 1102.19 864.262 1076.54C751.98 1025.23 591.372 913.239 398.218 670.503C204.991 427.674 44.2644 315.571 -68.1928 264.181C-124.421 238.486 -168.579 227.971 -198.693 223.882C-213.749 221.838 -225.294 221.4 -233.08 221.474C-236.973 221.511 -239.926 221.676 -241.909 221.832C-242.9 221.91 -243.649 221.986 -244.151 222.043C-244.402 222.071 -244.592 222.094 -244.719 222.111L-244.793 222.121L-244.863 222.13L-244.901 222.135L-244.91 222.137C-244.913 222.137 -244.914 222.137 -244.842 222.632ZM-251.53 232.197C-251.531 232.198 -251.532 232.198 -251.604 231.703C-251.676 231.208 -251.674 231.208 -251.672 231.208L-251.662 231.206L-251.625 231.201L-251.59 231.196C-251.561 231.192 -251.524 231.188 -251.481 231.182C-251.353 231.165 -251.164 231.142 -250.913 231.114C-250.41 231.057 -249.662 230.981 -248.67 230.903C-246.688 230.747 -243.734 230.582 -239.841 230.545C-232.055 230.471 -220.511 230.909 -205.454 232.953C-175.341 237.042 -131.183 247.557 -74.9543 273.252C37.5028 324.642 198.229 436.745 391.457 679.573C584.611 922.31 745.219 1034.3 857.501 1085.61C913.642 1111.26 957.705 1121.75 987.72 1125.83C1002.73 1127.86 1014.22 1128.3 1021.96 1128.22C1025.83 1128.19 1028.76 1128.02 1030.72 1127.87C1031.7 1127.79 1032.44 1127.72 1032.93 1127.66L1033.11 1127.64C1033.2 1127.63 1033.29 1127.62 1033.36 1127.61L1033.48 1127.6C1033.54 1127.59 1033.59 1127.58 1033.62 1127.58L1033.65 1127.57L1033.66 1127.57C1033.66 1127.57 1033.66 1127.57 1033.73 1128.07C1033.78 1128.37 1033.8 1128.49 1033.8 1128.53C1033.8 1128.56 1033.8 1128.56 1033.8 1128.56L1033.79 1128.56L1033.76 1128.57C1033.72 1128.57 1033.68 1128.58 1033.61 1128.59C1033.48 1128.6 1033.29 1128.63 1033.04 1128.66C1032.54 1128.71 1031.79 1128.79 1030.8 1128.87C1028.82 1129.02 1025.87 1129.19 1021.97 1129.22C1014.19 1129.3 1002.64 1128.86 987.585 1126.82C957.471 1122.73 913.314 1112.21 857.085 1086.52C744.628 1035.13 583.902 923.025 390.674 680.196C197.52 437.46 36.9122 325.472 -75.37 274.162C-131.511 248.507 -175.574 238.02 -205.589 233.944C-220.596 231.906 -232.093 231.471 -239.832 231.545C-243.701 231.582 -246.632 231.746 -248.592 231.9C-249.572 231.977 -250.31 232.052 -250.801 232.107C-251.046 232.135 -251.23 232.158 -251.352 232.174L-251.434 232.184L-251.489 232.192L-251.522 232.196L-251.53 232.197ZM-258.365 240.774C-258.293 241.269 -258.293 241.269 -258.291 241.268L-258.283 241.267L-258.25 241.263C-258.22 241.259 -258.175 241.252 -258.114 241.245C-257.992 241.229 -257.808 241.206 -257.562 241.178C-257.071 241.123 -256.334 241.048 -255.353 240.971C-253.393 240.817 -250.463 240.653 -246.593 240.616C-238.854 240.542 -227.358 240.977 -212.35 243.015C-182.336 247.091 -138.273 257.578 -82.1315 283.233C30.1506 334.542 190.759 446.531 383.913 689.267C577.14 932.096 737.866 1044.2 850.324 1095.59C906.552 1121.28 950.71 1131.8 980.824 1135.89C995.88 1137.93 1007.42 1138.37 1015.21 1138.3C1019.1 1138.26 1022.06 1138.09 1024.04 1137.94C1024.44 1137.91 1024.8 1137.87 1025.12 1137.85C1025.59 1137.8 1025.98 1137.76 1026.28 1137.73C1026.36 1137.72 1026.44 1137.71 1026.51 1137.7L1026.58 1137.69C1026.69 1137.68 1026.78 1137.67 1026.85 1137.66C1026.91 1137.65 1026.96 1137.64 1026.99 1137.64L1027.03 1137.63L1027.04 1137.63C1027.04 1137.63 1027.04 1137.63 1027.04 1137.61C1027.03 1137.56 1027.02 1137.45 1026.97 1137.14C1026.93 1136.86 1026.91 1136.74 1026.91 1136.68C1026.9 1136.64 1026.9 1136.64 1026.9 1136.64L1026.89 1136.64L1026.86 1136.65L1026.8 1136.66L1026.72 1136.67L1026.6 1136.68L1026.5 1136.69L1026.42 1136.7L1026.26 1136.72L1026.17 1136.73C1025.68 1136.79 1024.94 1136.86 1023.96 1136.94C1022 1137.09 1019.07 1137.26 1015.2 1137.3C1007.46 1137.37 995.966 1136.93 980.958 1134.9C950.943 1130.82 906.88 1120.33 850.739 1094.68C738.457 1043.37 577.849 931.381 384.695 688.644C191.468 445.816 30.7413 333.713 -81.7158 282.323C-137.944 256.628 -182.102 246.113 -212.216 242.024C-227.272 239.98 -238.817 239.542 -246.603 239.616C-250.496 239.653 -253.449 239.818 -255.432 239.974C-256.423 240.052 -257.172 240.128 -257.674 240.185C-257.831 240.202 -257.963 240.218 -258.071 240.231C-258.137 240.239 -258.194 240.247 -258.242 240.253L-258.331 240.264L-258.387 240.272L-258.424 240.277L-258.433 240.279C-258.436 240.279 -258.437 240.279 -258.365 240.774ZM-265.053 250.339C-265.054 250.34 -265.055 250.34 -265.127 249.845C-265.199 249.35 -265.197 249.35 -265.195 249.35L-265.185 249.348L-265.148 249.343L-265.083 249.334L-265.004 249.324C-264.876 249.307 -264.687 249.284 -264.436 249.256C-263.934 249.199 -263.185 249.123 -262.193 249.045C-260.211 248.889 -257.258 248.724 -253.365 248.687C-245.578 248.613 -234.034 249.051 -218.977 251.095C-188.864 255.184 -144.706 265.699 -88.4774 291.394C23.9798 342.784 184.706 454.887 377.934 697.715C571.087 940.452 731.696 1052.44 843.978 1103.75C900.119 1129.4 944.182 1139.89 974.197 1143.97C989.204 1146.01 1000.7 1146.44 1008.44 1146.37C1012.31 1146.33 1015.24 1146.17 1017.2 1146.01C1017.51 1145.99 1017.79 1145.96 1018.05 1145.94C1018.23 1145.92 1018.39 1145.91 1018.55 1145.89C1018.69 1145.88 1018.82 1145.87 1018.95 1145.85L1019.18 1145.83L1019.29 1145.82L1019.41 1145.8C1019.58 1145.78 1019.72 1145.77 1019.83 1145.75L1019.96 1145.74C1020.02 1145.73 1020.07 1145.72 1020.1 1145.72L1020.13 1145.72L1020.14 1145.71C1020.14 1145.71 1020.14 1145.71 1020.15 1145.76C1020.15 1145.81 1020.17 1145.93 1020.21 1146.21C1020.25 1146.49 1020.27 1146.61 1020.28 1146.67C1020.28 1146.7 1020.28 1146.7 1020.28 1146.7L1020.27 1146.71L1020.23 1146.71C1020.2 1146.71 1020.15 1146.72 1020.09 1146.73C1019.96 1146.75 1019.77 1146.77 1019.52 1146.8C1019.31 1146.82 1019.06 1146.85 1018.77 1146.88C1018.69 1146.88 1018.6 1146.89 1018.5 1146.9C1018.37 1146.91 1018.23 1146.93 1018.08 1146.94C1017.95 1146.95 1017.8 1146.97 1017.65 1146.98L1017.45 1146.99L1017.28 1147.01C1015.3 1147.16 1012.34 1147.33 1008.45 1147.37C1000.66 1147.44 989.119 1147 974.062 1144.96C943.948 1140.87 899.791 1130.35 843.562 1104.66C731.105 1053.27 570.379 941.167 377.151 698.338C183.997 455.602 23.3891 343.613 -88.893 292.304C-145.034 266.649 -189.097 256.162 -219.112 252.086C-234.12 250.048 -245.616 249.613 -253.355 249.687C-257.225 249.724 -260.155 249.888 -262.115 250.042C-263.095 250.119 -263.833 250.194 -264.324 250.249C-264.569 250.277 -264.754 250.3 -264.875 250.315C-264.936 250.323 -264.982 250.329 -265.012 250.334L-265.045 250.338L-265.053 250.339ZM-271.888 258.916C-271.816 259.411 -271.816 259.41 -271.814 259.41L-271.806 259.409L-271.773 259.405C-271.743 259.4 -271.698 259.394 -271.637 259.386C-271.515 259.371 -271.331 259.348 -271.085 259.32C-270.594 259.265 -269.857 259.19 -268.876 259.113C-266.916 258.959 -263.986 258.795 -260.117 258.758C-252.378 258.684 -240.881 259.119 -225.873 261.157C-195.859 265.233 -151.796 275.72 -95.6545 301.374C16.6276 352.684 177.236 464.672 370.39 707.409C563.617 950.238 724.343 1062.34 836.801 1113.73C893.029 1139.43 937.187 1149.94 967.301 1154.03C982.357 1156.07 993.902 1156.51 1001.69 1156.44C1005.58 1156.4 1008.53 1156.24 1010.52 1156.08C1011.51 1156 1012.26 1155.93 1012.76 1155.87C1013.01 1155.84 1013.2 1155.82 1013.33 1155.8L1013.44 1155.79L1013.47 1155.78L1013.51 1155.78L1013.52 1155.77C1013.52 1155.77 1013.52 1155.77 1013.47 1155.4L1013.45 1155.28C1013.41 1155.01 1013.39 1154.89 1013.38 1154.83C1013.38 1154.78 1013.38 1154.78 1013.38 1154.78L1013.37 1154.79L1013.34 1154.79C1013.31 1154.79 1013.26 1154.8 1013.2 1154.81L1013.07 1154.82C1012.96 1154.84 1012.82 1154.86 1012.65 1154.87C1012.16 1154.93 1011.42 1155.01 1010.44 1155.08C1008.48 1155.24 1005.55 1155.4 1001.68 1155.44C993.939 1155.51 982.443 1155.08 967.435 1153.04C937.42 1148.96 893.357 1138.48 837.216 1112.82C724.934 1061.51 564.326 949.523 371.172 706.786C177.945 463.957 17.2182 351.855 -95.2389 300.465C-151.468 274.77 -195.625 264.255 -225.739 260.166C-240.795 258.122 -252.34 257.684 -260.126 257.758C-264.019 257.795 -266.972 257.96 -268.955 258.116C-269.946 258.194 -270.695 258.27 -271.197 258.326C-271.448 258.355 -271.638 258.378 -271.765 258.395C-271.829 258.403 -271.877 258.409 -271.91 258.414L-271.947 258.419L-271.957 258.42C-271.959 258.421 -271.96 258.421 -271.888 258.916ZM-278.576 268.481C-278.577 268.481 -278.578 268.481 -278.65 267.987C-278.722 267.492 -278.721 267.492 -278.718 267.491L-278.708 267.49L-278.671 267.485C-278.639 267.48 -278.59 267.474 -278.527 267.466C-278.399 267.449 -278.21 267.426 -277.959 267.397C-277.457 267.341 -276.708 267.265 -275.717 267.187C-273.734 267.031 -270.781 266.866 -266.888 266.829C-259.102 266.755 -247.557 267.193 -232.5 269.237C-202.387 273.326 -158.229 283.841 -102 309.536C10.4567 360.926 171.183 473.028 364.411 715.857C557.564 958.594 718.173 1070.58 830.455 1121.89C886.596 1147.55 930.659 1158.03 960.674 1162.11C975.681 1164.15 987.178 1164.58 994.917 1164.51C998.786 1164.47 1001.72 1164.31 1003.68 1164.15C1004.66 1164.08 1005.39 1164 1005.89 1163.95C1006.06 1163.93 1006.2 1163.91 1006.31 1163.9L1006.44 1163.88C1006.5 1163.87 1006.54 1163.87 1006.57 1163.86L1006.61 1163.86L1006.61 1163.86C1006.61 1163.86 1006.61 1163.86 1006.62 1163.86C1006.62 1163.87 1006.62 1163.88 1006.62 1163.91L1006.66 1164.16L1006.69 1164.35C1006.76 1164.85 1006.76 1164.85 1006.76 1164.85L1006.75 1164.85L1006.71 1164.85C1006.68 1164.86 1006.63 1164.86 1006.57 1164.87C1006.5 1164.88 1006.41 1164.89 1006.3 1164.9C1006.21 1164.92 1006.11 1164.93 1006 1164.94C1005.5 1165 1004.75 1165.07 1003.76 1165.15C1001.77 1165.31 998.819 1165.47 994.926 1165.51C987.14 1165.58 975.596 1165.14 960.539 1163.1C930.425 1159.01 886.268 1148.5 830.039 1122.8C717.582 1071.41 556.855 959.309 363.628 716.48C170.474 473.743 9.86604 361.755 -102.416 310.445C-158.557 284.791 -202.62 274.303 -232.635 270.228C-247.643 268.19 -259.139 267.755 -266.878 267.829C-270.748 267.866 -273.678 268.03 -275.638 268.184C-276.618 268.261 -277.356 268.336 -277.847 268.391C-278.093 268.419 -278.277 268.442 -278.399 268.457C-278.459 268.465 -278.505 268.471 -278.535 268.475L-278.568 268.48L-278.576 268.481ZM-285.337 277.552C-285.339 277.552 -285.339 277.552 -285.411 277.058C-285.484 276.563 -285.482 276.563 -285.48 276.562L-285.47 276.561L-285.433 276.556C-285.4 276.551 -285.352 276.545 -285.288 276.537C-285.161 276.52 -284.971 276.497 -284.72 276.468C-284.218 276.412 -283.469 276.336 -282.478 276.258C-280.495 276.102 -277.542 275.937 -273.649 275.9C-265.863 275.826 -254.318 276.264 -239.262 278.308C-209.148 282.397 -164.991 292.912 -108.762 318.607C3.69519 369.997 164.422 482.099 357.649 724.928C550.803 967.665 711.411 1079.65 823.693 1130.96C879.834 1156.62 923.897 1167.1 953.912 1171.18C968.92 1173.22 980.416 1173.65 988.155 1173.58C992.025 1173.54 994.955 1173.38 996.915 1173.22L997.125 1173.21L997.441 1173.18L997.504 1173.18C997.77 1173.15 998.013 1173.13 998.235 1173.11C998.335 1173.1 998.43 1173.09 998.522 1173.08L998.688 1173.06L998.813 1173.05C998.926 1173.04 999.029 1173.03 999.124 1173.02C999.296 1173 999.438 1172.98 999.549 1172.97L999.676 1172.95L999.739 1172.94L999.812 1172.93L999.845 1172.93L999.853 1172.93C999.854 1172.93 999.855 1172.93 999.927 1173.42C999.967 1173.7 999.984 1173.82 999.991 1173.87C999.997 1173.92 999.996 1173.92 999.995 1173.92L999.985 1173.92L999.948 1173.92C999.916 1173.93 999.868 1173.93 999.804 1173.94C999.676 1173.96 999.487 1173.98 999.236 1174.01C998.734 1174.07 997.985 1174.14 996.994 1174.22C995.011 1174.38 992.058 1174.54 988.165 1174.58C980.379 1174.65 968.834 1174.22 953.777 1172.17C923.664 1168.08 879.506 1157.57 823.277 1131.87C710.82 1080.48 550.094 968.38 356.867 725.551C163.713 482.814 3.10452 370.826 -109.178 319.516C-165.319 293.861 -209.382 283.374 -239.396 279.299C-254.404 277.261 -265.901 276.826 -273.64 276.9C-277.509 276.936 -280.439 277.1 -282.4 277.255C-283.38 277.332 -284.117 277.407 -284.608 277.462C-284.854 277.49 -285.038 277.512 -285.16 277.528C-285.221 277.536 -285.266 277.542 -285.296 277.546L-285.329 277.551L-285.337 277.552Z" fill="url(#paint0_radial_262_9344)"/>
<path opacity="0.3" d="M868 748.883C892.65 767.672 916.173 784.032 938.5 798.273" stroke="url(#paint1_linear_262_9344)" stroke-width="2" stroke-linecap="round"/>
<path d="M411.35 652.672C394.913 632.016 378.712 612.306 362.756 593.5" stroke="url(#paint2_linear_262_9344)" stroke-width="2" stroke-linecap="round"/>
<path d="M254.5 290.514C269.909 303.911 285.681 318.219 301.801 333.5" stroke="url(#paint3_linear_262_9344)" stroke-width="2" stroke-linecap="round"/>
<defs>
<radialGradient id="paint0_radial_262_9344" cx="0" cy="0" r="1" gradientUnits="userSpaceOnUse" gradientTransform="translate(-52.0001 204.5) rotate(31.7076) scale(1274.77 1337.18)">
<stop stop-color="#10B981"/>
<stop offset="0.488621" stop-color="#BEF264" stop-opacity="0.34"/>
<stop offset="1" stop-color="#BEF264" stop-opacity="0.16"/>
</radialGradient>
<linearGradient id="paint1_linear_262_9344" x1="876.916" y1="755.789" x2="928.193" y2="812.39" gradientUnits="userSpaceOnUse">
<stop stop-color="#9CF885" stop-opacity="0"/>
<stop offset="1" stop-color="#9CF885"/>
<stop offset="1" stop-color="#9CF885"/>
</linearGradient>
<linearGradient id="paint2_linear_262_9344" x1="368.947" y1="601.71" x2="424.952" y2="636.657" gradientUnits="userSpaceOnUse">
<stop stop-color="#9CF885" stop-opacity="0"/>
<stop offset="1" stop-color="#9CF885"/>
<stop offset="1" stop-color="#9CF885"/>
</linearGradient>
<linearGradient id="paint3_linear_262_9344" x1="260.5" y1="296.5" x2="304.5" y2="334.5" gradientUnits="userSpaceOnUse">
<stop stop-color="#9CF885" stop-opacity="0"/>
<stop offset="1" stop-color="#9CF885"/>
<stop offset="1" stop-color="#9CF885"/>
</linearGradient>
</defs>
</svg>
