<svg width="48" height="48" viewBox="0 0 48 48" fill="none" xmlns="http://www.w3.org/2000/svg">
<path d="M0 8C0 3.58172 3.58172 0 8 0H40C44.4183 0 48 3.58172 48 8V40C48 44.4183 44.4183 48 40 48H8C3.58172 48 0 44.4183 0 40V8Z" fill="#BEF264"/>
<rect x="23" y="8" width="2" height="12" rx="1" fill="#022C22"/>
<rect x="23" y="28" width="2" height="12" rx="1" fill="#022C22"/>
<rect x="34.6066" y="11.9792" width="2" height="12" rx="1" transform="rotate(45 34.6066 11.9792)" fill="#022C22"/>
<rect x="20.4645" y="26.1213" width="2" height="12" rx="1" transform="rotate(45 20.4645 26.1213)" fill="#022C22"/>
<rect x="28" y="25" width="2" height="12" rx="1" transform="rotate(-90 28 25)" fill="#022C22"/>
<rect x="8" y="25" width="2" height="12" rx="1" transform="rotate(-90 8 25)" fill="#022C22"/>
<rect x="26.1213" y="27.5355" width="2" height="12" rx="1" transform="rotate(-45 26.1213 27.5355)" fill="#022C22"/>
<rect x="11.9792" y="13.3934" width="2" height="12" rx="1" transform="rotate(-45 11.9792 13.3934)" fill="#022C22"/>
</svg>
