<svg width="709" height="294" viewBox="0 0 709 294" fill="none" xmlns="http://www.w3.org/2000/svg">
<path d="M533.89 183.8L604.9 79.5876V183.8H533.89ZM474.5 187.691L474.05 188.348L474.5 188.594V231.6V232.6H475.5H604.9V286.8V287.8H605.9H657.5H658.5V286.8V232.6H706.3H707.3V231.6V184.8V183.8H706.3H658.5V6.80005V5.80005H657.5H599.9H599.896L599.334 5.27221L598.973 5.80005H598.68L598.746 6.13073L598.675 6.2353L474.936 187.053L474.5 187.099V187.691Z" fill="url(#paint0_linear_262_9392)" stroke="url(#paint1_linear_262_9392)" stroke-width="2"/>
<path d="M294.739 274.01L294.747 274.016C312.261 286.411 332.466 292.6 355.325 292.6C378.184 292.6 398.389 286.411 415.903 274.016L415.911 274.01C433.4 261.365 447.104 244.155 457.035 222.416L457.037 222.411C466.971 200.394 471.925 175.183 471.925 146.8C471.925 118.417 466.971 93.3384 457.035 71.5858C447.105 49.5789 433.265 32.3655 415.504 19.9847C397.992 7.3238 377.786 1 354.925 1C332.062 1 311.855 7.32509 294.341 19.9886C277.113 32.371 263.543 49.584 253.615 71.5861C243.679 93.3386 238.725 118.418 238.725 146.8C238.725 175.183 243.679 200.394 253.614 222.411L253.615 222.416C263.546 244.155 277.251 261.365 294.739 274.01ZM386.662 64.3486L386.673 64.3586L386.685 64.3682C396.123 72.2334 403.501 83.274 408.787 97.5473C414.072 111.815 416.725 128.227 416.725 146.8C416.725 165.371 414.072 181.782 408.789 196.049C403.503 210.054 396.124 221.103 386.674 229.241C377.517 237.09 367.08 241 355.325 241C343.574 241 333.002 237.092 323.577 229.241C314.396 221.106 307.15 210.06 301.865 196.058C296.845 181.787 294.325 165.373 294.325 146.8C294.325 128.225 296.846 111.81 301.866 97.5394C307.154 83.2636 314.402 72.2228 323.576 64.3592L323.582 64.354L323.588 64.3486C332.746 56.237 343.18 52.2 354.925 52.2C366.943 52.2 377.508 56.241 386.662 64.3486Z" fill="url(#paint2_linear_262_9392)" stroke="url(#paint3_linear_262_9392)" stroke-width="2"/>
<path d="M61.3901 183.8L132.4 79.5875V183.8H61.3901ZM2 187.691L1.55 188.348L2 188.594V231.6V232.6H3H132.4V286.8V287.8H133.4H185H186V286.8V232.6H233.8H234.8V231.6V184.8V183.8H233.8H186V6.80005V5.80005H185H127.4H127.396L126.834 5.27221L126.473 5.80005H126.18L126.246 6.1307L126.175 6.2353L2.43619 187.053L2 187.099V187.691Z" fill="url(#paint4_linear_262_9392)" stroke="url(#paint5_linear_262_9392)" stroke-width="2"/>
<defs>
<linearGradient id="paint0_linear_262_9392" x1="590.575" y1="44.3138" x2="590.88" y2="286.8" gradientUnits="userSpaceOnUse">
<stop stop-color="#022C22"/>
<stop offset="1" stop-color="#022C22" stop-opacity="0"/>
</linearGradient>
<linearGradient id="paint1_linear_262_9392" x1="609.5" y1="74" x2="628.5" y2="287" gradientUnits="userSpaceOnUse">
<stop stop-color="#9CF885"/>
<stop offset="1" stop-color="#022C22" stop-opacity="0"/>
</linearGradient>
<linearGradient id="paint2_linear_262_9392" x1="355" y1="40.8" x2="355.325" y2="291.6" gradientUnits="userSpaceOnUse">
<stop stop-color="#022C22"/>
<stop offset="1" stop-color="#022C22" stop-opacity="0"/>
</linearGradient>
<linearGradient id="paint3_linear_262_9392" x1="373.957" y1="71.5039" x2="394.237" y2="291.692" gradientUnits="userSpaceOnUse">
<stop stop-color="#9CF885"/>
<stop offset="1" stop-color="#022C22" stop-opacity="0"/>
</linearGradient>
<linearGradient id="paint4_linear_262_9392" x1="118.075" y1="44.3138" x2="118.38" y2="286.8" gradientUnits="userSpaceOnUse">
<stop stop-color="#022C22"/>
<stop offset="1" stop-color="#022C22" stop-opacity="0"/>
</linearGradient>
<linearGradient id="paint5_linear_262_9392" x1="137" y1="74" x2="156" y2="287" gradientUnits="userSpaceOnUse">
<stop stop-color="#9CF885"/>
<stop offset="1" stop-color="#022C22" stop-opacity="0"/>
</linearGradient>
</defs>
</svg>
