<svg width="16" height="16" viewBox="0 0 16 16" fill="none" xmlns="http://www.w3.org/2000/svg">
<path d="M13.4001 6.7999C13.4001 10.9999 8.0001 14.5999 8.0001 14.5999C8.0001 14.5999 2.6001 10.9999 2.6001 6.7999C2.6001 5.36773 3.16902 3.99422 4.18172 2.98153C5.19442 1.96883 6.56793 1.3999 8.0001 1.3999C9.43227 1.3999 10.8058 1.96883 11.8185 2.98153C12.8312 3.99422 13.4001 5.36773 13.4001 6.7999Z" stroke="#1D1F1E" stroke-width="1.5" stroke-linecap="round" stroke-linejoin="round"/>
<path d="M7.99995 8.6C8.99406 8.6 9.79995 7.79411 9.79995 6.8C9.79995 5.80589 8.99406 5 7.99995 5C7.00584 5 6.19995 5.80589 6.19995 6.8C6.19995 7.79411 7.00584 8.6 7.99995 8.6Z" stroke="#1D1F1E" stroke-width="1.5" stroke-linecap="round" stroke-linejoin="round"/>
</svg>
